<svg width="204" height="37" viewBox="0 0 204 37" fill="none" xmlns="http://www.w3.org/2000/svg">
<path d="M22.264 24.592L23.2098 24.2674L22.9781 23.592H22.264V24.592ZM24.12 30L23.1742 30.3246L23.4059 31H24.12V30ZM27.992 30V31H29.4235L28.9309 29.6559L27.992 30ZM19.608 7.12L20.5469 6.77594L20.3066 6.12H19.608V7.12ZM15.608 7.12V6.12H14.9103L14.6695 6.77478L15.608 7.12ZM7.192 30L6.25348 29.6548L5.75866 31H7.192V30ZM11.064 30V31H11.7781L12.0098 30.3246L11.064 30ZM12.92 24.592V23.592H12.2059L11.9742 24.2674L12.92 24.592ZM13.976 21.424L13.0276 21.1069L12.5873 22.424H13.976V21.424ZM17.592 10.608V9.608H16.8719L16.6436 10.2909L17.592 10.608ZM17.656 10.608L18.6052 10.2935L18.3781 9.608H17.656V10.608ZM21.24 21.424V22.424H22.6248L22.1892 21.1095L21.24 21.424ZM21.3182 24.9166L23.1742 30.3246L25.0658 29.6754L23.2098 24.2674L21.3182 24.9166ZM24.12 31H27.992V29H24.12V31ZM28.9309 29.6559L20.5469 6.77594L18.6691 7.46406L27.0531 30.3441L28.9309 29.6559ZM19.608 6.12H15.608V8.12H19.608V6.12ZM14.6695 6.77478L6.25348 29.6548L8.13052 30.3452L16.5465 7.46522L14.6695 6.77478ZM7.192 31H11.064V29H7.192V31ZM12.0098 30.3246L13.8658 24.9166L11.9742 24.2674L10.1182 29.6754L12.0098 30.3246ZM12.92 25.592H22.264V23.592H12.92V25.592ZM14.9244 21.7411L18.5404 10.9251L16.6436 10.2909L13.0276 21.1069L14.9244 21.7411ZM17.592 11.608H17.656V9.608H17.592V11.608ZM16.7068 10.9225L20.2908 21.7385L22.1892 21.1095L18.6052 10.2935L16.7068 10.9225ZM21.24 20.424H13.976V22.424H21.24V20.424ZM34.9707 7.12V6.12H33.9707V7.12H34.9707ZM34.9707 30H33.9707V31H34.9707V30ZM48.6667 17.712H47.6667V18.5536L48.496 18.6973L48.6667 17.712ZM48.6667 17.648L48.3457 16.7009L47.6667 16.9311V17.648H48.6667ZM38.7787 16.592H37.7787V17.592H38.7787V16.592ZM38.7787 10.352V9.352H37.7787V10.352H38.7787ZM38.7787 19.44V18.44H37.7787V19.44H38.7787ZM38.7787 26.768H37.7787V27.768H38.7787V26.768ZM53.2188 12.88C53.2188 10.7675 52.4232 9.01975 50.8823 7.82877C49.378 6.66619 47.2759 6.12 44.7948 6.12V8.12C47.0176 8.12 48.6275 8.6138 49.6592 9.41123C50.6543 10.1803 51.2188 11.3125 51.2188 12.88H53.2188ZM44.7948 6.12H34.9707V8.12H44.7948V6.12ZM33.9707 7.12V30H35.9707V7.12H33.9707ZM34.9707 31H45.3387V29H34.9707V31ZM45.3387 31C47.8515 31 50.0515 30.3986 51.6407 29.0821C53.2581 27.7422 54.1147 25.7675 54.1147 23.312H52.1147C52.1147 25.2725 51.4514 26.6418 50.3648 27.5419C49.25 28.4654 47.562 29 45.3387 29V31ZM54.1147 23.312C54.1147 21.391 53.5353 19.8494 52.5405 18.7223C51.5531 17.6035 50.2217 16.9666 48.8375 16.7267L48.496 18.6973C49.5118 18.8734 50.4044 19.3245 51.041 20.0457C51.6702 20.7586 52.1147 21.809 52.1147 23.312H54.1147ZM49.6667 17.712V17.648H47.6667V17.712H49.6667ZM48.9878 18.5951C50.0353 18.24 51.1025 17.6721 51.9097 16.7311C52.7329 15.7716 53.2188 14.5017 53.2188 12.88H51.2188C51.2188 14.0743 50.8726 14.8684 50.3918 15.4289C49.895 16.0079 49.1862 16.416 48.3457 16.7009L48.9878 18.5951ZM39.7787 16.592V10.352H37.7787V16.592H39.7787ZM38.7787 11.352H44.8908V9.352H38.7787V11.352ZM44.8908 11.352C45.8755 11.352 46.484 11.5951 46.8368 11.91C47.1718 12.209 47.4108 12.6927 47.4108 13.488H49.4108C49.4108 12.2673 49.0257 11.183 48.1687 10.418C47.3295 9.66888 46.178 9.352 44.8908 9.352V11.352ZM47.4108 13.488C47.4108 14.3356 47.1986 14.7811 46.8985 15.045C46.5685 15.3351 45.9245 15.592 44.6667 15.592V17.592C46.129 17.592 47.357 17.3049 48.219 16.547C49.1109 15.7629 49.4108 14.6564 49.4108 13.488H47.4108ZM44.6667 15.592H38.7787V17.592H44.6667V15.592ZM38.7787 20.44H45.4668V18.44H38.7787V20.44ZM45.4668 20.44C46.491 20.44 47.1778 20.7183 47.6021 21.1168C48.0173 21.5069 48.3067 22.1299 48.3067 23.088H50.3067C50.3067 21.7101 49.8762 20.5091 48.9714 19.6592C48.0757 18.8177 46.8425 18.44 45.4668 18.44V20.44ZM48.3067 23.088C48.3067 24.023 48.0897 24.6333 47.6978 25.0227C47.303 25.4151 46.5451 25.768 45.0508 25.768V27.768C46.8204 27.768 48.1905 27.3529 49.1077 26.4413C50.0278 25.5267 50.3067 24.297 50.3067 23.088H48.3067ZM45.0508 25.768H38.7787V27.768H45.0508V25.768ZM39.7787 26.768V19.44H37.7787V26.768H39.7787ZM71.045 31.48C74.744 31.48 77.8267 30.1136 79.978 27.7679C82.1209 25.4313 83.277 22.1933 83.277 18.544H81.277C81.277 21.7747 80.2571 24.5047 78.504 26.4161C76.7593 28.3184 74.226 29.48 71.045 29.48V31.48ZM83.277 18.544C83.277 14.8945 82.1208 11.6637 79.9767 9.3347C77.8246 6.99698 74.742 5.64 71.045 5.64V7.64C74.228 7.64 76.7614 8.79502 78.5053 10.6893C80.2572 12.5923 81.277 15.3135 81.277 18.544H83.277ZM71.045 5.64C67.333 5.64 64.2496 6.99633 62.1006 9.33546C59.9601 11.6654 58.813 14.8964 58.813 18.544H60.813C60.813 15.3116 61.8259 12.5906 63.5734 10.6885C65.3124 8.79567 67.845 7.64 71.045 7.64V5.64ZM58.813 18.544C58.813 22.1914 59.9599 25.4296 62.0993 27.7672C64.2475 30.1142 67.331 31.48 71.045 31.48V29.48C67.847 29.48 65.3145 28.3178 63.5747 26.4168C61.8261 24.5064 60.813 21.7766 60.813 18.544H58.813ZM71.045 26.216C68.7101 26.216 67.1501 25.336 66.1449 24.0146C65.11 22.6541 64.589 20.7236 64.589 18.544H62.589C62.589 21.0044 63.172 23.4099 64.5531 25.2254C65.9639 27.08 68.1319 28.216 71.045 28.216V26.216ZM64.589 18.544C64.589 16.3816 65.1094 14.4592 66.1442 13.1024C67.1495 11.7842 68.71 10.904 71.045 10.904V8.904C68.132 8.904 65.9645 10.0398 64.5538 11.8896C63.1726 13.7008 62.589 16.0984 62.589 18.544H64.589ZM71.045 10.904C73.3795 10.904 74.9307 11.7836 75.9279 13.0999C76.9553 14.456 77.469 16.3787 77.469 18.544H79.469C79.469 16.1013 78.8947 13.704 77.5221 11.8921C76.1193 10.0404 73.9585 8.904 71.045 8.904V10.904ZM77.469 18.544C77.469 20.7265 76.9547 22.6573 75.9272 24.0171C74.9301 25.3366 73.3793 26.216 71.045 26.216V28.216C73.9587 28.216 76.1199 27.0794 77.5228 25.2229C78.8953 23.4067 79.469 21.0015 79.469 18.544H77.469ZM107.83 7.12H108.83V6.12H107.83V7.12ZM104.054 7.12V6.12H103.054V7.12H104.054ZM93.59 7.12H94.59V6.12H93.59V7.12ZM89.782 7.12V6.12H88.782V7.12H89.782ZM108.83 22.192V7.12H106.83V22.192H108.83ZM107.83 6.12H104.054V8.12H107.83V6.12ZM103.054 7.12V22.192H105.054V7.12H103.054ZM103.054 22.192C103.054 23.7659 102.662 24.7076 102.063 25.2732C101.453 25.8496 100.44 26.216 98.806 26.216V28.216C100.692 28.216 102.303 27.7984 103.437 26.7268C104.582 25.6444 105.054 24.0741 105.054 22.192H103.054ZM98.806 26.216C97.1905 26.216 96.1851 25.8506 95.5785 25.2747C94.9823 24.7088 94.59 23.7659 94.59 22.192H92.59C92.59 24.0741 93.0617 25.6432 94.2015 26.7253C95.3309 27.7974 96.9335 28.216 98.806 28.216V26.216ZM94.59 22.192V7.12H92.59V22.192H94.59ZM93.59 6.12H89.782V8.12H93.59V6.12ZM88.782 7.12V22.192H90.782V7.12H88.782ZM88.782 22.192C88.782 24.8571 89.493 27.2232 91.2018 28.918C92.91 30.6122 95.4585 31.48 98.806 31.48V29.48C95.7855 29.48 93.822 28.6999 92.6102 27.498C91.399 26.2968 90.782 24.5189 90.782 22.192H88.782ZM98.806 31.48C102.153 31.48 104.702 30.6122 106.41 28.918C108.119 27.2232 108.83 24.8571 108.83 22.192H106.83C106.83 24.5189 106.213 26.2968 105.002 27.498C103.79 28.6999 101.827 29.48 98.806 29.48V31.48ZM122.262 30H121.262V31H122.262V30ZM126.07 30V31H127.07V30H126.07ZM126.07 10.352V9.352H125.07V10.352H126.07ZM133.366 10.352V11.352H134.366V10.352H133.366ZM133.366 7.12H134.366V6.12H133.366V7.12ZM114.934 7.12V6.12H113.934V7.12H114.934ZM114.934 10.352H113.934V11.352H114.934V10.352ZM122.262 10.352H123.262V9.352H122.262V10.352ZM122.262 31H126.07V29H122.262V31ZM127.07 30V10.352H125.07V30H127.07ZM126.07 11.352H133.366V9.352H126.07V11.352ZM134.366 10.352V7.12H132.366V10.352H134.366ZM133.366 6.12H114.934V8.12H133.366V6.12ZM113.934 7.12V10.352H115.934V7.12H113.934ZM114.934 11.352H122.262V9.352H114.934V11.352ZM121.262 10.352V30H123.262V10.352H121.262ZM169.386 7.12H170.386V6.12H169.386V7.12ZM165.61 7.12V6.12H164.61V7.12H165.61ZM155.146 7.12H156.146V6.12H155.146V7.12ZM151.338 7.12V6.12H150.338V7.12H151.338ZM170.386 22.192V7.12H168.386V22.192H170.386ZM169.386 6.12H165.61V8.12H169.386V6.12ZM164.61 7.12V22.192H166.61V7.12H164.61ZM164.61 22.192C164.61 23.7659 164.218 24.7076 163.619 25.2732C163.009 25.8496 161.996 26.216 160.362 26.216V28.216C162.249 28.216 163.859 27.7984 164.993 26.7268C166.139 25.6444 166.61 24.0741 166.61 22.192H164.61ZM160.362 26.216C158.747 26.216 157.741 25.8506 157.135 25.2747C156.539 24.7088 156.146 23.7659 156.146 22.192H154.146C154.146 24.0741 154.618 25.6432 155.758 26.7253C156.887 27.7974 158.49 28.216 160.362 28.216V26.216ZM156.146 22.192V7.12H154.146V22.192H156.146ZM155.146 6.12H151.338V8.12H155.146V6.12ZM150.338 7.12V22.192H152.338V7.12H150.338ZM150.338 22.192C150.338 24.8571 151.049 27.2232 152.758 28.918C154.466 30.6122 157.015 31.48 160.362 31.48V29.48C157.342 29.48 155.378 28.6999 154.166 27.498C152.955 26.2968 152.338 24.5189 152.338 22.192H150.338ZM160.362 31.48C163.71 31.48 166.258 30.6122 167.966 28.918C169.675 27.2232 170.386 24.8571 170.386 22.192H168.386C168.386 24.5189 167.769 26.2968 166.558 27.498C165.346 28.6999 163.383 29.48 160.362 29.48V31.48ZM186.724 16.368L186.971 15.399L186.967 15.3979L186.724 16.368ZM190.916 13.968L189.925 14.0994L190.04 14.968H190.916V13.968ZM194.724 13.968V14.968H195.794L195.722 13.9001L194.724 13.968ZM185.06 19.6L184.817 20.5701L184.819 20.5705L185.06 19.6ZM180.548 22.384L181.546 22.3182L181.484 21.384H180.548V22.384ZM176.74 22.384V21.384H175.696L175.741 22.4272L176.74 22.384ZM186.967 15.3979C185.298 14.9808 184.13 14.7013 183.34 14.2594C182.975 14.055 182.753 13.846 182.615 13.6232C182.48 13.4048 182.38 13.0995 182.38 12.624H180.38C180.38 13.3965 180.548 14.0832 180.915 14.6758C181.279 15.264 181.793 15.685 182.364 16.0046C183.446 16.6107 184.95 16.9552 186.481 17.3381L186.967 15.3979ZM182.38 12.624C182.38 12.155 182.58 11.78 183.066 11.4757C183.597 11.1436 184.477 10.904 185.732 10.904V8.904C184.267 8.904 182.971 9.1764 182.006 9.78026C180.996 10.412 180.38 11.397 180.38 12.624H182.38ZM185.732 10.904C187.179 10.904 188.136 11.2262 188.756 11.7212C189.36 12.2044 189.773 12.9564 189.925 14.0994L191.907 13.8366C191.707 12.3236 191.112 11.0436 190.004 10.1588C188.912 9.28576 187.453 8.904 185.732 8.904V10.904ZM190.916 14.968H194.724V12.968H190.916V14.968ZM195.722 13.9001C195.544 11.2836 194.426 9.18384 192.611 7.7543C190.813 6.33934 188.41 5.64 185.732 5.64V7.64C188.078 7.64 190.011 8.25266 191.373 9.3257C192.718 10.3842 193.584 11.9484 193.726 14.0359L195.722 13.9001ZM185.732 5.64C183.101 5.64 180.828 6.23669 179.189 7.48945C177.514 8.76916 176.604 10.6571 176.604 12.976H178.604C178.604 11.2309 179.262 9.95084 180.403 9.07855C181.58 8.17931 183.371 7.64 185.732 7.64V5.64ZM176.604 12.976C176.604 15.5187 177.766 17.239 179.411 18.4008C180.993 19.5183 183.021 20.121 184.817 20.5701L185.303 18.6299C183.515 18.183 181.815 17.6497 180.565 16.7672C179.378 15.929 178.604 14.7853 178.604 12.976H176.604ZM184.819 20.5705C187.137 21.146 188.584 21.5218 189.484 22.0418C189.899 22.2818 190.134 22.5203 190.278 22.7745C190.424 23.0318 190.524 23.3912 190.524 23.952H192.524C192.524 23.1528 192.38 22.4282 192.019 21.7895C191.656 21.1477 191.121 20.6782 190.484 20.3102C189.28 19.6142 187.495 19.174 185.301 18.6295L184.819 20.5705ZM190.524 23.952C190.524 24.5645 190.307 25.0763 189.823 25.4603C189.309 25.8672 188.385 26.216 186.82 26.216V28.216C188.647 28.216 190.075 27.8128 191.065 27.0277C192.085 26.2197 192.524 25.0995 192.524 23.952H190.524ZM186.82 26.216C184.917 26.216 183.65 25.7695 182.853 25.1179C182.075 24.4813 181.627 23.5526 181.546 22.3182L179.55 22.4498C179.661 24.1274 180.301 25.6147 181.587 26.6661C182.854 27.7025 184.627 28.216 186.82 28.216V26.216ZM180.548 21.384H176.74V23.384H180.548V21.384ZM175.741 22.4272C175.866 25.3109 177.126 27.6109 179.155 29.1691C181.162 30.7103 183.857 31.48 186.82 31.48V29.48C184.183 29.48 181.95 28.7937 180.373 27.5828C178.818 26.3891 177.838 24.6411 177.739 22.3408L175.741 22.4272ZM186.82 31.48C189.87 31.48 192.253 30.674 193.89 29.2608C195.537 27.838 196.332 25.8797 196.332 23.792H194.332C194.332 25.3523 193.751 26.738 192.582 27.7472C191.403 28.766 189.53 29.48 186.82 29.48V31.48ZM196.332 23.792C196.332 22.3902 196.077 21.2027 195.568 20.1958C195.056 19.1848 194.316 18.4132 193.431 17.8043C191.715 16.6233 189.372 16.0111 186.971 15.399L186.477 17.337C188.972 17.9729 190.933 18.5127 192.297 19.4517C192.952 19.9028 193.446 20.4332 193.783 21.0992C194.123 21.7693 194.332 22.6338 194.332 23.792H196.332Z" fill="black"/>
<rect x="2.35" y="3.35" width="199.3" height="30.3" stroke="black" stroke-width="0.7"/>
<rect x="0.35" y="1.35" width="3.3" height="3.3" stroke="black" stroke-width="0.7"/>
<rect x="0.35" y="32.35" width="3.3" height="3.3" stroke="black" stroke-width="0.7"/>
<rect x="71.35" y="32.35" width="3.3" height="3.3" stroke="black" stroke-width="0.7"/>
<rect x="150.35" y="32.35" width="3.3" height="3.3" stroke="black" stroke-width="0.7"/>
<rect x="200.35" y="32.35" width="3.3" height="3.3" stroke="black" stroke-width="0.7"/>
<rect x="71.35" y="1.35" width="3.3" height="3.3" stroke="black" stroke-width="0.7"/>
<rect x="150.35" y="1.35" width="3.3" height="3.3" stroke="black" stroke-width="0.7"/>
<rect x="200.35" y="1.35" width="3.3" height="3.3" stroke="black" stroke-width="0.7"/>
</svg>
