<svg width="34" height="25" viewBox="0 0 34 25" fill="none" xmlns="http://www.w3.org/2000/svg">
<g clip-path="url(#clip0_5_8667)">
<path d="M9.36525 4.84082H7.06366V5.95193H5.87319V8.33288H4.68271V9.52336H3.49223V10.7138H2.30176V13.0948H8.25414V11.9043H9.36525V10.7138H10.6351V7.14241H9.36525V4.84082Z" fill="black"/>
<path d="M10.6349 2.38095V3.57143H11.8254V4.84127H13.0159V5.95238H14.2063V7.14286H15.3968V11.9048H14.2063V13.0952H13.0159V14.2857H11.9048V15.3968H15.3968V17.8571H10.6349V16.6667H9.44444V15.5556H8.25397V14.2857H0V16.5873H1.11111V17.8571H2.30159V18.9683H3.49206V20.2381H4.68254V21.4286H5.87302V22.619H7.14286V23.8095H8.25397V25H23.7302V23.8889H24.9206V22.6984H26.1111V21.4286H27.3016V20.2381H28.4921V19.0476H32.0635V17.8571H33.254V15.4762H30.873V16.6667H28.4921V17.8571H17.7778V15.4762H20.1587V14.2857H21.3492V13.0952H22.5397V11.9048H23.7302V7.14286H22.5397V5.95238H21.3492V4.84127H20.1587V3.57143H18.9683V2.38095H17.6984V0H15.3968V2.38095H10.6349Z" fill="black"/>
</g>
<defs>
<clipPath id="clip0_5_8667">
<rect width="33.254" height="25" fill="white"/>
</clipPath>
</defs>
</svg>
