<svg width="117" height="142" viewBox="0 0 117 142" fill="none" xmlns="http://www.w3.org/2000/svg">
<path d="M59.0092 88.522H59.075C68.6903 88.522 76.5406 80.7508 76.5801 71.2013C76.6196 61.3753 68.9406 53.6172 59.0882 53.5382C54.4913 53.525 50.1183 55.2768 46.8123 58.5434C43.4798 61.8363 41.6358 66.2224 41.6226 70.9115C41.6095 75.6006 43.4008 80.0263 46.6805 83.3456C49.9471 86.6648 54.3333 88.5088 59.0092 88.522ZM59.0882 56.4754H59.1013C63.0133 56.4754 66.6619 57.977 69.3884 60.7035C72.1281 63.4432 73.6297 67.1049 73.6297 71.0169C73.6297 74.9289 72.1018 78.6038 69.3225 81.3567C66.5828 84.0832 62.9475 85.5847 59.0092 85.5847C51.0272 85.5452 44.5335 79.0121 44.5335 71.0169C44.5335 62.8769 50.9218 56.4886 59.0882 56.4754Z" fill="#010202"/>
<path d="M115.542 24.9558H81.5456C81.5852 24.6397 81.6378 24.3235 81.6509 23.9811C81.8485 20.8199 80.9793 18.2119 79.0957 16.2362C77.581 14.6556 75.8292 13.9311 74.894 13.536L74.7227 13.4701C71.9699 12.3242 69.5067 12.2452 67.4124 13.2067C63.9351 14.8005 62.6443 18.7388 62.0911 20.4247C61.3667 21.1755 60.6818 22.1107 60.0759 23.1118C60.2339 22.5059 60.3788 21.9527 60.5369 21.5312C64.2644 10.5197 65.4103 3.19626 59.6148 0.746331C56.9542 -0.386429 54.8994 -0.0176223 53.6349 0.469728C52.2256 1.03611 51.4616 1.90543 51.3431 2.05032C51.3036 2.10301 51.264 2.14252 51.2377 2.19521L42.9132 16.9079L42.8078 17.1318C42.3205 18.1461 40.2525 22.4268 39.0144 24.9426H0.513713C0.237109 24.9426 0 25.1665 0 25.4563V140.497C0 140.774 0.223937 141.011 0.513713 141.011H115.555C115.831 141.011 116.068 140.787 116.068 140.497V25.4563C116.055 25.1929 115.831 24.9558 115.542 24.9558ZM65.0284 22.0185L65.2128 21.4653C65.6738 20.0823 66.609 17.2109 68.7823 16.223C70.0205 15.6566 71.5878 15.762 73.445 16.5391L73.6163 16.605C75.2627 17.2899 78.6742 18.7124 78.358 23.7967C78.2132 26.2334 77.3834 28.0116 75.9609 28.9468C74.6042 29.8425 72.7733 29.9478 70.7844 29.2366C67.0173 27.8931 65.9241 23.5728 65.9109 23.5333C65.8055 23.0986 65.5553 22.743 65.1733 22.5059C65.0679 22.44 64.9494 22.3873 64.8308 22.3478C64.9362 22.2293 64.9888 22.1239 65.0284 22.0185ZM84.338 50.9698C84.2458 50.9829 84.1536 51.0356 84.1009 51.1147L84.0746 51.1542C83.6399 51.4176 83.1789 51.6284 82.7047 51.7732C81.2954 52.1816 79.807 51.8391 78.2659 50.7459C76.4087 49.4287 75.3681 47.9798 75.1969 46.4256C74.8544 43.2907 77.9103 39.9056 79.7411 37.8772L80.1099 37.4688C80.9792 36.5073 82.3491 35.2297 84.2722 35.2297C85.6815 35.2297 87.2885 35.8882 89.0271 37.1922C90.8316 38.5357 91.2926 40.6696 90.4891 43.8966C90.2784 43.8834 90.0545 43.923 89.8438 44.002C89.4618 44.16 89.172 44.4498 89.0139 44.8186C89.0008 44.8713 87.1831 49.0335 84.338 50.9698ZM87.8153 61.7705C88.1183 60.2031 90.0282 59.123 90.1072 59.0703L90.3179 58.8859C90.3574 58.8464 93.7162 55.4218 97.3911 55.4218C98.998 55.4218 100.486 56.1331 101.804 57.5161C104.214 60.045 104.003 62.7847 103.108 64.9976C103.081 64.9185 103.055 64.8263 103.029 64.7473C102.871 64.3785 102.568 64.0887 102.186 63.9438C101.804 63.799 101.395 63.7989 101.013 63.9702C99.4195 64.6683 95.6656 65.9196 92.5835 65.8537C92.544 65.801 92.4913 65.7483 92.4254 65.7088C92.3069 65.6561 92.1619 65.6693 92.0566 65.7352L91.9381 65.8142C90.5946 65.6957 89.4223 65.2873 88.711 64.4048C87.9734 63.4565 87.6573 62.574 87.8153 61.7705ZM86.6957 53.0114L86.406 53.6041C85.2337 55.9882 84.2985 57.9112 83.6926 59.4918C83.5214 59.123 83.3502 58.7674 83.1921 58.3854L82.9418 57.8454L85.9845 53.5251C86.2216 53.367 86.4586 53.1958 86.6957 53.0114ZM60.6027 30.3298L60.6423 30.2903C60.7871 30.1322 60.8793 29.9215 60.9056 29.7108L60.932 29.5132C61.011 28.7492 61.7881 26.6681 62.8946 24.8241C63.3951 26.3915 65.1337 30.6854 69.7175 32.3187C71.0741 32.8061 72.4045 33.0037 73.6689 32.9641C73.366 33.952 73.0762 34.7818 72.8787 35.0848L72.826 35.177C72.7602 35.2692 72.7206 35.3746 72.6943 35.4931L72.668 35.5853C72.5494 36.0463 72.3914 36.7181 72.1806 37.6137C71.6669 39.7607 70.7844 43.4224 70.0205 46.1226C69.9283 46.0963 69.8492 46.0699 69.7702 46.0436C69.0194 45.8723 68.7823 45.6221 68.756 44.3971C68.7164 43.0536 68.5847 41.7101 68.453 40.3666C68.4003 39.8002 68.3477 39.2338 68.295 38.6543L68.2554 38.2328C68.2422 38.0484 68.0974 37.9035 67.9129 37.8903L58.8114 37.1132C59.8783 32.49 60.4446 30.6986 60.6027 30.3298ZM39.1724 38.3382C39.7388 34.9267 40.7663 28.6307 41.3063 27.6296L41.3194 27.6165C41.3984 27.5374 41.4643 27.4452 41.5038 27.353L41.5566 27.2608C42.6235 25.1402 44.9022 20.3984 45.8374 18.4622L53.9774 4.06558C54.333 3.73629 55.7556 2.69573 58.324 3.78898C60.8003 4.84271 61.5906 8.06975 57.402 20.4643C56.941 21.7946 56.4669 23.9679 56.0454 25.891L56.019 25.9963C55.7556 27.2213 55.4921 28.3804 55.2814 29.1707C55.2814 29.1839 55.255 29.2761 55.255 29.2893C54.9916 30.883 53.6086 39.5895 52.8315 44.5684C52.0017 44.7659 51.0928 45.003 50.1708 45.2928C50.1576 45.2796 50.1576 45.2796 50.1444 45.2664C49.4463 44.542 48.7351 43.8307 48.0238 43.1195L45.0075 40.0637C44.8758 39.9319 44.6651 39.9056 44.5202 40.0241L38.1187 44.542C38.4743 42.5794 38.8168 40.4456 39.1724 38.3382ZM40.4896 55.4086C40.8847 54.8817 41.2272 54.2232 40.7399 53.2485C40.0549 51.8786 39.4096 50.5088 38.7378 49.0862L38.2241 48.0062L44.3752 43.6727C44.5596 43.8439 44.7572 44.0283 44.9812 44.2391C45.8242 45.0162 46.6145 45.7538 47.2994 46.5836C48.2609 47.7427 49.6571 48.9282 52.0148 47.7822C52.6602 47.4661 53.4373 47.3344 54.2672 47.2027C54.5042 47.1632 54.7545 47.1237 54.9916 47.0841C55.8082 46.9393 56.2956 46.4651 56.4932 45.6484C56.862 44.1469 57.2571 42.6321 57.6523 41.1306L57.9552 39.9583L65.4894 40.6037L65.5157 40.9198C65.6079 42.0131 65.7001 43.08 65.7923 44.2391C65.8582 45.003 65.9241 45.767 65.9636 46.5441C66.0294 47.6373 66.8329 47.993 67.0963 48.1115C67.8339 48.4408 68.5715 48.7833 69.3091 49.1257L69.4013 49.1653C70.1258 49.4946 70.8371 49.837 71.5615 50.1531C72.062 50.3771 72.7997 50.3112 73.2475 49.9951C73.2607 49.9819 73.2738 49.9819 73.287 49.9687C74.0114 51.141 75.0783 52.2342 76.4877 53.2353C78.1078 54.3812 79.7411 54.9476 81.3612 54.9739C80.9397 55.5798 80.5051 56.1989 80.0704 56.7916C79.6489 57.3712 79.5962 57.9507 79.9387 58.6357C80.5841 59.9265 81.2427 61.3227 81.9408 62.9165C82.1515 63.3906 82.5071 63.9438 83.416 64.0097C83.9692 64.0492 84.5224 64.1019 85.0756 64.1414C85.3522 64.879 85.7606 65.6034 86.3401 66.3147C87.2753 67.4738 88.5398 68.1456 89.9228 68.5144L90.2389 72.0444L89.1193 72.3473C87.5914 72.7556 86.103 73.164 84.6015 73.5328C83.9165 73.704 83.1789 74.0465 82.9418 75.2319C82.6652 76.6545 82.2437 78.0638 81.8354 79.3942C81.5983 80.1713 81.7431 80.7772 82.3095 81.3172C83.4291 82.3973 84.5356 83.4905 85.642 84.5838L86.6562 85.5848C86.6694 85.5848 86.6693 85.598 86.6825 85.598L82.3623 91.815L78.964 90.2212C78.7401 90.1159 78.503 89.9842 78.2264 89.8129C77.5151 89.3914 76.7906 88.9568 75.9213 89.0358C75.0915 89.1016 74.4329 89.6812 73.8402 90.2081C73.6294 90.3925 73.4187 90.59 73.1948 90.7349C72.9314 90.9193 72.6416 91.0906 72.3123 91.3013C71.8908 91.5647 71.4825 91.8282 71.0874 92.118C70.679 92.4077 70.2971 93.0268 70.3497 93.6327C70.4551 95.0025 70.5868 96.3592 70.7185 97.7291L70.9029 99.5863C70.9161 99.6917 70.9161 99.7838 70.9293 99.9024L69.4804 100.298C67.531 100.824 65.608 101.351 63.6191 101.891C63.2239 101.009 62.8155 100.126 62.4072 99.2438L62.3282 99.0726C61.9067 98.1637 61.4852 97.2549 61.0769 96.3329C60.7739 95.648 60.2603 95.3187 59.4963 95.266C57.9552 95.1738 56.4405 95.0552 55.0048 94.884C54.1354 94.7786 53.5032 95.0684 53.0158 95.7928C52.1202 97.1363 51.1982 98.4667 50.2762 99.8102L49.6571 100.719L48.959 100.39C46.8911 99.4282 44.8494 98.4799 42.8078 97.5052C43.2425 95.806 43.7694 93.8039 44.349 91.815C44.6651 90.7613 44.1645 90.1422 43.7035 89.7207C42.7551 88.8514 41.6487 87.824 40.6214 86.6912C40.0023 86.0063 39.3437 85.8219 38.4744 86.0722C36.9465 86.52 35.4185 86.9415 33.8379 87.3762L32.8238 87.6528L29.5967 80.7904L30.4528 80.1844C31.5461 79.4073 32.6789 78.617 33.8116 77.9058C35.0498 77.1286 35.4581 76.2066 35.1683 74.7973C34.9444 73.704 34.9049 72.5054 34.8654 71.3463L34.8522 70.9907C34.8258 70.1608 34.457 69.6208 33.7062 69.2783C32.8237 68.8832 31.9281 68.4881 30.9665 68.0402C30.084 67.6319 29.1884 67.2236 28.2927 66.8284C28.9645 64.3917 29.6099 61.9417 30.2421 59.505C30.2948 59.505 30.3607 59.5182 30.4133 59.5182C30.4924 59.5577 30.5714 59.5972 30.6636 59.584C30.6899 59.584 30.7163 59.5577 30.7426 59.5445C31.4012 59.6104 32.073 59.6762 32.7316 59.7289C33.7985 59.8211 34.8785 59.9265 35.9454 60.045C36.8543 60.1504 37.4865 59.8475 37.9607 59.0572C38.6588 57.9507 39.4885 56.7521 40.4896 55.4086ZM37.3284 54.7237C36.9333 55.0793 36.6172 55.5403 36.446 55.9882C36.1825 56.7126 35.8796 57.0814 34.9708 57.0814C35.603 54.9344 36.143 53.0509 36.5777 51.4176C36.8411 51.9576 37.1045 52.4977 37.4075 53.0245C37.9212 53.9597 37.8421 54.2627 37.3284 54.7237ZM30.5187 137.455H3.56954V28.5253H37.6182C37.1703 30.3957 36.6699 33.2671 35.9191 37.8377C35.3395 41.3413 34.7468 44.9372 34.154 47.5451C34.3648 44.621 33.8248 42.2238 32.4681 40.4193C29.6626 36.7049 24.8022 37.0737 24.5915 37.0869L23.5377 37.1659C23.3401 37.1791 23.1821 37.3503 23.1821 37.5479V38.6016C23.1821 49.0335 10.4715 52.9587 10.353 52.985L9.53625 53.2221C9.37819 53.2748 9.2597 53.4197 9.2597 53.5909V83.9779C9.2597 93.6063 17.5578 105.369 25.3159 113.153C30.4529 118.303 30.6372 125.93 30.6372 125.995L30.5187 137.455ZM78.503 128.814C78.4503 128.88 78.4108 128.972 78.4108 129.064V129.486C78.4108 131.488 78.4108 134.715 78.3976 137.468H33.5482L33.6536 126.035C33.6536 125.679 33.535 117.144 27.4497 111.046C20.1131 103.696 12.2892 92.7238 12.2892 84.0174V55.5667C13.6722 55.053 16.1353 53.9861 18.6115 52.2079C23.0635 49.0204 25.6584 44.8845 26.1326 40.2217C27.2521 40.3798 28.9513 40.8539 30.0182 42.2765C31.7173 44.5288 31.5461 48.4672 29.4913 53.9729C29.241 54.6973 29.0171 55.3954 28.8064 56.0804C28.7668 56.2121 28.7274 56.3438 28.6747 56.4887L28.3454 56.4623C28.1478 56.4492 27.9898 56.5677 27.9371 56.739L26.9228 60.5719C25.8032 62.1788 24.0778 63.1799 21.3644 63.799C20.9693 63.8912 20.6268 64.1282 20.416 64.4707C20.2053 64.8132 20.1263 65.2215 20.2185 65.6166C20.3107 66.0118 20.5478 66.3542 20.8903 66.565C21.1405 66.723 21.4171 66.8021 21.6937 66.8021C21.8123 66.8021 21.9308 66.7889 22.0362 66.7626C23.3797 66.4596 24.5651 66.0381 25.6057 65.5244L24.8944 68.1851C24.8417 68.3563 24.934 68.5539 25.092 68.6329L25.7637 68.9622C25.9481 69.0544 26.1062 69.1335 26.2774 69.2125L27.6472 69.8316C27.8448 69.9238 28.0424 70.016 28.24 70.095C27.2521 73.1772 25.0656 74.6392 24.9603 74.7051C24.1963 75.1924 23.9724 76.2198 24.4729 76.9837C24.7759 77.4579 25.3027 77.7345 25.8559 77.7345C26.172 77.7345 26.4882 77.6423 26.7516 77.4711C26.9887 77.313 29.083 75.9037 30.5714 73.0191C30.8348 72.5186 31.0588 71.9917 31.2432 71.4517C31.4407 71.5439 31.6383 71.6361 31.8359 71.7151C31.8491 71.7283 31.8622 71.7283 31.8754 71.7283V71.7414C31.9281 72.9401 32.0466 74.165 32.2178 75.4295C30.9139 76.3252 29.623 77.2208 28.319 78.1297L27.1204 78.9595C26.9755 79.0517 26.8438 79.1571 26.6594 79.2888L26.1194 79.6708C25.9745 79.7761 25.9218 79.9737 26.0008 80.1449L27.2653 82.8451C28.3981 85.2555 29.5176 87.6396 30.6241 90.0368C31.1509 91.1828 32.1652 90.893 32.4945 90.8008C33.3506 90.5637 34.2199 90.3266 35.0761 90.0895C36.2747 89.7602 37.4602 89.4309 38.7246 89.0753C39.6862 90.0763 40.5028 90.8798 41.2931 91.5911C41.3063 91.6043 41.3194 91.6043 41.3194 91.6174C41.056 92.5526 40.7926 93.4878 40.5423 94.4362L40.5028 94.6074C40.213 95.6611 39.9232 96.728 39.6203 97.7818C39.3569 98.7038 39.673 99.3755 40.5555 99.7838C42.6498 100.732 44.7309 101.707 46.812 102.668L49.5517 103.946C49.6834 103.999 49.8152 104.051 49.9469 104.078L50.4342 104.236C50.5923 104.289 50.7635 104.223 50.8688 104.091L52.0807 102.339C53.0949 100.864 54.096 99.4019 55.1233 97.953C55.1233 97.9398 55.1365 97.9398 55.1496 97.9266C56.3482 97.9793 57.5206 98.0847 58.5743 98.2033C58.6006 98.2164 58.6665 98.2559 58.6665 98.2559C59.0353 98.9804 59.3778 99.718 59.707 100.469L61.854 105.079C61.9199 105.211 62.0516 105.303 62.1965 105.303C62.2228 105.303 62.2624 105.303 62.3019 105.29L65.1733 104.512C67.7681 103.801 70.3366 103.103 72.905 102.431C73.6822 102.221 74.0246 101.694 73.9324 100.838C73.827 99.797 73.7217 98.7696 73.6295 97.7291C73.5241 96.6885 73.4319 95.648 73.3265 94.6074C73.2739 94.1596 73.287 94.1596 73.4978 94.041C74.4988 93.501 75.3813 92.816 76.1057 92.2102C76.1453 92.1706 76.1716 92.1575 76.1848 92.1443C76.2111 92.1443 76.2506 92.1706 76.3296 92.2102C77.5151 92.7897 78.7137 93.3429 79.8992 93.9093L82.112 94.963C82.415 95.1079 83.3633 95.5557 84.0746 94.5152C85.5761 92.3287 87.0909 90.1685 88.6188 87.9689L90.1994 85.7166C90.3048 85.5717 90.2916 85.3609 90.1599 85.2292L88.5134 83.5169C87.2884 82.2392 86.103 80.9879 84.8912 79.7498C84.8649 79.7235 84.8517 79.7103 84.8385 79.6971C84.8385 79.6971 84.8386 79.6839 84.8517 79.6839C85.1678 78.6829 85.4576 77.6028 85.7606 76.2857C86.8275 76.009 87.8812 75.7324 88.9481 75.4427L89.0535 75.4163C90.0809 75.1397 91.095 74.8631 92.1224 74.6129C92.9786 74.4021 93.3606 73.8357 93.2815 72.9664C93.1498 71.7151 93.0444 70.4506 92.939 69.1993C92.9259 69.1071 92.9259 69.0017 92.9128 68.9095C97.1672 68.8832 101.593 67.0523 102.186 66.8021C101.264 68.2641 100.249 69.252 100.131 69.3705L99.8673 69.7262C98.3658 72.6108 96.6666 75.469 96.232 75.8378L95.7974 76.2066C95.7052 76.2857 95.6524 76.4042 95.6656 76.5227L95.7051 77.0891C95.7051 77.1813 95.8105 79.3283 94.5328 81.0538L94.4538 81.1723C94.4275 81.1987 94.4143 81.2382 94.4012 81.2777L94.2694 81.6597C94.1904 82.0812 94.0982 82.5027 94.0191 82.9637L93.9797 83.2008C93.8216 84.0437 93.3342 86.5859 93.1235 86.8888L92.9128 87.0996C92.8732 87.1522 92.8337 87.2049 92.8205 87.2708L92.7415 87.5606C92.5966 88.0611 92.2542 89.4836 91.7537 91.4725C90.3048 97.3734 87.5914 108.359 86.3006 111.665C86.024 112.363 85.7078 113.193 85.3785 114.075L85.2469 114.418C83.4819 119.093 80.808 126.14 78.7927 128.524L78.503 128.814ZM112.486 137.455H81.4402C81.4402 134.926 81.4534 132.015 81.4534 130C83.7058 126.97 86.2215 120.332 88.0787 115.458L88.1446 115.274C88.5003 114.339 88.8296 113.469 89.1193 112.745C90.4892 109.254 93.2289 98.1242 94.7041 92.1443L94.7831 91.815C95.1519 90.3398 95.4285 89.2202 95.5734 88.6275C96.1661 87.745 96.4823 86.2434 96.9565 83.7276L97.1804 82.5553C98.4317 80.6981 98.6951 78.6829 98.7346 77.5633C99.8542 76.1671 101.527 73.0981 102.449 71.3331C103.121 70.6614 104.675 68.9095 105.755 66.5123C107.586 62.4028 106.98 58.583 103.99 55.4481C102.08 53.4329 99.841 52.4186 97.3516 52.4055C92.9259 52.4055 89.3168 55.593 88.329 56.5809C88.5924 56.054 88.8559 55.514 89.1193 54.9608L90.0018 53.1563C92.86 47.2817 96.7852 39.2207 90.8184 34.7818C85.8922 31.107 81.5061 31.3309 77.8049 35.4668L77.4361 35.8751C76.817 36.56 76.0794 37.3766 75.3549 38.2987L75.3681 38.246C75.5262 37.6137 75.6579 37.0605 75.7501 36.639C76.3691 35.4931 77.0014 33.2012 77.3175 31.9631C77.4624 31.8841 77.6073 31.805 77.739 31.7128C78.661 31.107 79.6884 30.1059 80.4656 28.5648H112.433V137.455H112.486Z" fill="#010202"/>
</svg>
