<svg width="18" height="19" viewBox="0 0 18 19" fill="none" xmlns="http://www.w3.org/2000/svg">
<path d="M17.4256 4.69058C17.4256 7.85391 17.4256 11.0172 17.4256 14.1806C17.3353 14.2064 17.2901 14.3032 17.1803 14.3161C16.7155 14.3743 16.7155 14.3807 16.7155 14.852C16.7155 14.9617 16.709 15.065 16.7155 15.1748C16.7284 15.433 16.6122 15.5686 16.354 15.5363C16.0376 15.4976 15.9085 15.5879 15.9279 15.9366C15.9602 16.5047 15.9343 16.5305 15.3662 16.4982C15.0112 16.4788 14.9208 16.6015 14.966 16.9243C14.9983 17.1825 14.8691 17.2987 14.6045 17.2858C14.4237 17.2794 14.2365 17.3052 14.0557 17.2794C13.7587 17.2406 13.6103 17.331 13.6748 17.6538C13.7071 17.8087 13.6425 17.9443 13.5457 18.0605C10.363 18.0605 7.17385 18.0605 3.99115 18.0605C3.89431 17.9443 3.82975 17.8087 3.86203 17.6538C3.92659 17.331 3.77811 17.2471 3.48114 17.2794C3.28101 17.3052 3.07442 17.2794 2.86784 17.2858C2.60961 17.2987 2.47404 17.1825 2.50632 16.9243C2.54505 16.6015 2.45467 16.4788 2.10606 16.4982C1.53795 16.5305 1.51213 16.5047 1.5444 15.9366C1.56377 15.5815 1.43466 15.4911 1.11832 15.5363C0.860091 15.5686 0.743887 15.433 0.756798 15.1748C0.763254 14.9682 0.750343 14.7681 0.763254 14.5615C0.776166 14.3743 0.730975 14.271 0.52439 14.3097C0.369451 14.3355 0.23388 14.2774 0.117676 14.1806C0.117676 11.0172 0.117676 7.85391 0.117676 4.69058C0.208057 4.66475 0.246791 4.53564 0.362996 4.56146C0.8149 4.66475 0.782622 4.36779 0.763254 4.08373C0.756798 3.94171 0.76971 3.80613 0.756798 3.66411C0.737431 3.3736 0.860091 3.22511 1.1506 3.2703C1.49276 3.32841 1.55732 3.17347 1.5444 2.87005C1.51858 2.30194 1.53795 2.27611 2.10606 2.30839C2.46113 2.32776 2.55151 2.2051 2.50632 1.88231C2.47404 1.62408 2.60315 1.50788 2.86784 1.52079C3.07442 1.52724 3.27455 1.50142 3.48114 1.52724C3.77811 1.56598 3.92659 1.4756 3.86203 1.15281C3.82975 0.997869 3.89431 0.862298 3.99115 0.746094C7.17385 0.746094 10.363 0.746094 13.5457 0.746094C13.6425 0.862298 13.7071 0.997869 13.6748 1.15281C13.6103 1.4756 13.7587 1.56598 14.0557 1.52724C14.2365 1.50142 14.4172 1.52724 14.6045 1.52079C14.8627 1.50788 14.9983 1.62408 14.966 1.88231C14.9272 2.2051 15.0176 2.32776 15.3662 2.30839C15.9343 2.27611 15.9602 2.30194 15.9279 2.87005C15.9085 3.22511 16.0376 3.3155 16.354 3.2703C16.6122 3.23803 16.7284 3.3736 16.7155 3.63183C16.709 3.83196 16.7284 4.03854 16.709 4.24513C16.6897 4.48399 16.7478 4.61311 17.0189 4.56146C17.1739 4.52918 17.3094 4.59374 17.4256 4.69058ZM8.7426 2.30194C7.27714 2.30194 5.81813 2.30839 4.35267 2.29548C4.15254 2.29548 4.04279 2.31485 4.04925 2.56662C4.06216 3.07663 4.04925 3.07663 3.51987 3.07663C3.09379 3.07663 3.08734 3.07663 3.08734 3.4898C3.08734 3.72867 3.00341 3.84487 2.75164 3.85133C2.3191 3.86424 2.3191 3.87069 2.3191 4.3226C2.3191 4.36779 2.3191 4.40652 2.3191 4.45171C2.33847 4.70349 2.22872 4.85197 1.96403 4.81969C1.71225 4.78741 1.66706 4.88425 1.66706 5.12311C1.67352 7.97011 1.67352 10.8236 1.66706 13.6706C1.66706 13.9094 1.7058 14.0256 1.97694 13.9934C2.22226 13.9611 2.33201 14.0967 2.3191 14.3355C2.31264 14.4324 2.33201 14.5292 2.3191 14.626C2.28036 14.8907 2.3772 14.9811 2.64834 14.9617C3.06151 14.9359 3.11962 14.9876 3.08734 15.3878C3.06797 15.6848 3.17126 15.7752 3.4424 15.73C3.50696 15.7171 3.57152 15.73 3.63608 15.73C4.02342 15.73 4.08798 15.7687 4.0557 16.156C4.02988 16.4724 4.159 16.5111 4.43659 16.5111C7.30942 16.5047 10.1822 16.4982 13.0486 16.5111C13.3585 16.5111 13.4747 16.4336 13.4295 16.1238C13.3843 15.8397 13.5199 15.6977 13.8168 15.7235C13.9266 15.73 14.0363 15.7106 14.1396 15.73C14.3656 15.7622 14.4043 15.659 14.4043 15.4588C14.3979 14.9617 14.4043 14.9553 14.9079 14.9617C15.1145 14.9617 15.2048 14.9101 15.179 14.697C15.1661 14.6131 15.179 14.5227 15.179 14.4388C15.179 14.0192 15.2048 13.9804 15.6116 13.9934C15.844 13.9998 15.8956 13.9288 15.8956 13.7029C15.8827 12.6699 15.8892 11.637 15.8892 10.6041C15.8892 8.77709 15.8892 6.9501 15.8892 5.11666C15.8892 4.98754 15.9666 4.81324 15.7019 4.80678C15.1855 4.79387 15.1855 4.7745 15.1855 4.25158C15.1855 4.18703 15.179 4.12247 15.1855 4.05791C15.2048 3.89006 15.1403 3.83841 14.9724 3.83841C14.4301 3.8255 14.4237 3.81905 14.4172 3.29613C14.4172 3.10891 14.3527 3.04435 14.1784 3.07018C14.0944 3.08309 14.0041 3.07018 13.9201 3.07018C13.4618 3.07018 13.4295 3.05726 13.4553 2.5989C13.4682 2.3213 13.3585 2.28903 13.1261 2.29548C11.6477 2.30839 10.1952 2.30194 8.7426 2.30194Z" fill="black"/>
<path d="M8.77491 13.7924C8.19389 13.7924 7.61287 13.786 7.03185 13.7924C6.76716 13.7989 6.63805 13.7085 6.63805 13.4245C6.63805 12.7595 6.62514 12.7595 5.9731 12.7595C5.87626 12.7595 5.77943 12.7595 5.68259 12.7595C5.45664 12.766 5.34689 12.6627 5.34689 12.4367C5.35335 12.243 5.32752 12.0494 5.35335 11.8557C5.39208 11.5716 5.26942 11.5006 5.01119 11.5329C4.88207 11.5523 4.75296 11.5329 4.62384 11.5329C4.4108 11.5329 4.31396 11.4296 4.31396 11.2166C4.31396 10.0093 4.31396 8.80857 4.31396 7.60134C4.31396 7.37539 4.4108 7.27209 4.64321 7.26564C4.86916 7.26564 5.15967 7.36248 5.29524 7.2269C5.45018 7.07197 5.34043 6.78145 5.34689 6.54259C5.35335 5.97448 5.34689 5.97448 5.92791 5.97448C5.94728 5.97448 5.9731 5.97448 5.99247 5.97448C6.62514 5.97448 6.63159 5.97448 6.63805 5.35473C6.6445 5.11586 6.73488 4.99966 6.9802 5.00611C8.17452 5.01257 9.36884 5.01257 10.5632 5.00611C10.8085 5.00611 10.8989 5.11586 10.9053 5.36118C10.9118 5.98094 10.9182 5.98094 11.5574 5.98094C12.1319 5.98094 12.1255 5.98094 12.1319 6.54905C12.1384 6.78146 12.0286 7.07842 12.1836 7.2269C12.3256 7.36248 12.6161 7.26564 12.8356 7.26564C13.068 7.26564 13.1648 7.37539 13.1648 7.60134C13.1648 8.79566 13.1584 9.98998 13.1648 11.1843C13.1648 11.4296 13.068 11.5265 12.8227 11.5329C12.1319 11.5523 12.1319 11.5587 12.1319 12.243C12.1319 12.7595 12.1319 12.7595 11.6025 12.7595C10.9182 12.7595 10.9053 12.7595 10.9053 13.4245C10.9053 13.7085 10.7762 13.7989 10.5115 13.7924C9.93695 13.786 9.35593 13.7924 8.77491 13.7924ZM11.6155 9.4025C11.6155 8.86667 11.609 8.32439 11.6219 7.78856C11.6219 7.6078 11.5961 7.52387 11.383 7.52387C10.6277 7.51741 10.6213 7.5045 10.589 6.76854C10.5825 6.62006 10.5503 6.56196 10.3889 6.56196C9.29137 6.56841 8.19389 6.56841 7.09641 6.56196C6.93501 6.56196 6.90273 6.62006 6.89628 6.76854C6.864 7.51096 6.85754 7.51741 6.10222 7.53033C5.92791 7.53033 5.8569 7.56906 5.86335 7.76273C5.86981 8.84085 5.86981 9.91251 5.86335 10.9906C5.86335 11.1778 5.92791 11.2166 6.10222 11.223C6.87691 11.2359 6.88337 11.2424 6.89628 12.0171C6.90273 12.1914 6.93501 12.2624 7.12869 12.256C8.2068 12.2495 9.27846 12.2495 10.3566 12.256C10.5438 12.256 10.5825 12.1914 10.589 12.0171C10.6019 11.2424 10.6084 11.2359 11.383 11.2295C11.5961 11.2295 11.6284 11.1456 11.6219 10.9648C11.609 10.4354 11.6155 9.91897 11.6155 9.4025Z" fill="black"/>
<path d="M14.1333 4.80115C14.1397 5.66622 14.2043 5.59521 13.3392 5.59521C12.5451 5.59521 12.5839 5.64685 12.5839 4.85279C12.5839 3.96835 12.5129 4.04582 13.3973 4.03936C14.1849 4.03936 14.1397 4.00063 14.1333 4.80115Z" fill="black"/>
</svg>
