<svg width="24" height="9" viewBox="0 0 24 9" fill="none" xmlns="http://www.w3.org/2000/svg">
<path d="M0.947266 1.43262V0.719727H5.05371V1.43262H3.4375V7.28711H5.05371V8H0.947266V7.28711H2.52441V1.43262H0.947266ZM7.04102 6.72559C7.56185 7.15202 8.18197 7.36523 8.90137 7.36523C9.29199 7.36523 9.5931 7.24642 9.80469 7.00879C10.0163 6.7679 10.1221 6.45703 10.1221 6.07617C10.1221 5.69531 10.0114 5.40723 9.79004 5.21191C9.57194 5.01335 9.30664 4.85059 8.99414 4.72363L8.70117 4.60645C8.14779 4.38509 7.76367 4.19792 7.54883 4.04492C7.33724 3.89193 7.18262 3.75195 7.08496 3.625C6.85384 3.32552 6.73828 2.95605 6.73828 2.5166C6.73828 1.90788 6.94499 1.43587 7.3584 1.10059C7.77181 0.762044 8.30404 0.592773 8.95508 0.592773C9.77539 0.592773 10.415 0.773438 10.874 1.13477L10.5322 1.83789C10.109 1.50911 9.59961 1.34473 9.00391 1.34473C8.61979 1.34473 8.3138 1.45052 8.08594 1.66211C7.86133 1.87044 7.74902 2.16341 7.74902 2.54102C7.74902 2.91536 7.95573 3.22298 8.36914 3.46387C8.52539 3.55176 8.76139 3.65755 9.07715 3.78125C9.39616 3.90495 9.71354 4.0498 10.0293 4.21582C10.3483 4.38184 10.6152 4.60645 10.8301 4.88965C11.0449 5.17285 11.1523 5.53418 11.1523 5.97363C11.1523 6.6735 10.9489 7.20736 10.542 7.5752C10.1383 7.93978 9.58496 8.12207 8.88184 8.12207C8.00618 8.12207 7.27702 7.92839 6.69434 7.54102L7.04102 6.72559ZM12.959 1.43262V0.719727H17.0654V1.43262H15.4492V7.28711H17.0654V8H12.959V7.28711H14.5361V1.43262H12.959ZM20.1807 4.91895H21.8506L21.0303 1.75977L20.1807 4.91895ZM21.5332 0.719727L23.6865 8H22.7246L22.0361 5.65137H19.9902L19.3066 8H18.3496L20.498 0.719727H21.5332Z" fill="black" fill-opacity="0.8"/>
</svg>
