<svg width="36" height="11" viewBox="0 0 36 11" fill="none" xmlns="http://www.w3.org/2000/svg">
<path d="M9.59438 9.1387C9.59438 8.73121 9.59438 8.32175 9.59438 7.91426C9.59438 7.50677 9.77984 7.27447 10.1823 7.25282C10.5847 7.23116 10.7776 7.44968 10.8462 7.84339C11.0725 9.14854 11.742 9.68794 13.0069 9.58951C13.3405 9.56991 13.6566 9.42481 13.8986 9.18023C14.1406 8.93564 14.2926 8.60757 14.3274 8.25482C14.4201 7.42803 14.0788 6.8473 13.3296 6.61698C12.6934 6.42012 12.0443 6.28233 11.41 6.08351C10.0896 5.67208 9.44044 4.63071 9.61478 3.24287C9.70037 2.6084 9.99164 2.02542 10.4385 1.59427C10.8853 1.16312 11.4597 0.910759 12.0629 0.880605C12.6807 0.820473 13.3009 0.963416 13.8396 1.29006C14.0139 1.40424 14.1122 1.43574 14.2105 1.18573C14.3255 0.868791 14.5981 0.835328 14.8708 0.892416C14.9946 0.916182 15.1061 0.987065 15.1843 1.09179C15.2625 1.19651 15.302 1.32789 15.2955 1.46133C15.3103 2.30977 15.3159 3.16019 15.2955 4.00864C15.2862 4.38857 15.0451 4.59921 14.689 4.61299C14.2643 4.63858 14.0937 4.37873 14.0269 3.9673C13.8415 2.79798 13.2739 2.25663 12.291 2.2645C11.9724 2.25204 11.6601 2.35995 11.4094 2.56902C11.1588 2.7781 10.9862 3.07477 10.9223 3.40626C10.8129 4.07557 11.1523 4.60314 11.8904 4.83937C12.5377 5.04804 13.2035 5.19371 13.847 5.41025C15.2009 5.86105 15.8222 7.02644 15.5996 8.63869C15.4937 9.279 15.1843 9.86147 14.7231 10.2891C14.2618 10.7168 13.6764 10.9639 13.0644 10.9891C12.3693 11.0305 11.6768 10.8699 11.0614 10.5246C10.8759 10.4183 10.7795 10.3887 10.7016 10.6407C10.5922 10.9891 10.3121 11.0344 10.0191 10.9793C9.72605 10.9242 9.60365 10.6781 9.60179 10.371C9.59438 9.95565 9.59438 9.54619 9.59438 9.1387Z" fill="black"/>
<path d="M34.5926 10.8323C34.3311 10.8323 34.0678 10.8323 33.8063 10.8323C33.6659 10.8484 33.5251 10.8056 33.4141 10.7128C33.3032 10.6201 33.2309 10.4849 33.2128 10.3362C33.1572 9.97988 33.185 9.61373 33.5745 9.48971C33.8489 9.4031 33.8786 9.25151 33.7803 9.03103C33.6635 8.76134 33.8489 8.27707 33.3204 8.28691C32.9049 8.28691 32.4858 8.31447 32.0722 8.28691C31.7143 8.25542 31.5752 8.41291 31.5344 8.76134C31.4936 9.10978 31.2655 9.409 31.8256 9.54877C32.1798 9.63538 32.0926 10.0862 32.0611 10.4071C32.057 10.4691 32.0411 10.5297 32.0143 10.5851C31.9876 10.6405 31.9506 10.6897 31.9056 10.7295C31.8606 10.7694 31.8085 10.7992 31.7523 10.8172C31.6962 10.8352 31.6372 10.841 31.5789 10.8342C30.978 10.8342 30.3771 10.846 29.7762 10.8342C29.4053 10.8342 29.2773 10.5842 29.2755 10.2181C29.2736 9.85193 29.2996 9.47396 29.7354 9.46609C30.0896 9.46609 30.1546 9.26922 30.2158 8.97591C30.7103 6.55458 31.2142 4.13458 31.7273 1.71588C31.8831 0.967823 32.0073 0.851678 32.6175 0.847741C33.2277 0.843804 33.3834 0.975697 33.5244 1.63516C34.0276 4.02105 34.5271 6.4076 35.0229 8.79481C35.0952 9.14915 35.1138 9.46215 35.5997 9.4779C36.0003 9.48971 36.0077 9.89523 35.9984 10.2318C35.9892 10.5685 35.8649 10.8086 35.5181 10.8224C35.2102 10.8382 34.9005 10.8224 34.5908 10.8224L34.5926 10.8323ZM32.6861 3.74546H32.5915C32.4469 4.43839 32.3003 5.12345 32.1594 5.82229C31.9331 6.93649 31.9331 6.92468 32.9977 6.88727C33.2944 6.87743 33.3222 6.75735 33.2685 6.49356C33.0663 5.58409 32.8771 4.66477 32.6861 3.74546Z" fill="black"/>
<path d="M22.6012 10.8328C21.9539 10.8328 21.3029 10.8328 20.6594 10.8328C20.1623 10.8328 20.027 10.6695 20.0233 10.1537C20.0195 9.63793 20.1753 9.45092 20.6742 9.43124C20.7057 9.43124 20.7373 9.43124 20.767 9.43124C21.1601 9.39777 21.6943 9.62809 21.9094 9.33281C22.1245 9.03753 21.9799 8.52373 21.9799 8.10246C21.9799 6.35635 21.9799 4.61023 21.991 2.86609C21.991 2.49797 21.9001 2.37395 21.5533 2.40151C21.2146 2.41856 20.8752 2.41395 20.537 2.38773C20.1104 2.36805 20.0214 2.07277 20.0195 1.68299C20.0177 1.29322 20.1605 1.00974 20.5648 0.99596C21.0897 0.978243 21.6127 0.98612 22.1375 0.98612C22.922 0.98612 23.7084 0.98612 24.4947 0.98612C25.0344 0.98612 25.2199 1.18297 25.2199 1.69677C25.2199 2.21056 25.0474 2.38576 24.4929 2.40348C24.2316 2.42021 23.9696 2.42021 23.7084 2.40348C23.3819 2.37395 23.2521 2.46647 23.254 2.85428C23.2633 4.89174 23.254 6.93116 23.2262 8.97059C23.2262 9.32887 23.3059 9.47651 23.662 9.43911C23.9707 9.41629 24.2806 9.41629 24.5893 9.43911C25.0585 9.46076 25.2236 9.65171 25.2236 10.1419C25.2236 10.6321 25.0622 10.8269 24.5912 10.8368C23.9254 10.8525 23.2633 10.8328 22.6012 10.8328Z" fill="black"/>
<path d="M2.54676 10.8325C1.91434 10.8325 1.28192 10.8325 0.651349 10.8325C0.159876 10.8325 0.00779616 10.6573 0.000377708 10.1613C-0.00704075 9.66519 0.156167 9.45259 0.651349 9.43094C0.729243 9.43094 0.805282 9.43094 0.883176 9.43094C1.97183 9.43094 1.97183 9.43094 1.97183 8.2498C1.97183 6.4781 1.9607 4.69065 1.9811 2.91304C1.9811 2.49374 1.86056 2.36184 1.48407 2.40121C1.22228 2.4209 0.959505 2.4209 0.697714 2.40121C0.150603 2.37956 -0.00889536 2.20436 0.000377708 1.67284C0.000377708 1.16889 0.185837 0.993694 0.694001 0.98582C1.26522 0.975977 1.83459 0.98582 2.40581 0.98582C3.11427 0.98582 3.82459 0.98582 4.53305 0.98582C5.02267 0.98582 5.21555 1.2122 5.20998 1.70631C5.20442 2.20042 5.02453 2.36578 4.55531 2.40121C4.49411 2.40121 4.4329 2.40121 4.36985 2.40121C3.23668 2.41696 3.24039 2.41696 3.23482 3.64337C3.23482 5.30877 3.21442 6.9722 3.20514 8.6376C3.20514 9.42502 3.20515 9.42502 3.9711 9.42502C4.1714 9.42502 4.37355 9.42502 4.57199 9.42502C5.02823 9.45061 5.22853 9.66715 5.20442 10.1357C5.18402 10.5451 5.00598 10.8227 4.57942 10.8247C3.90063 10.8247 3.2237 10.8247 2.53934 10.8247L2.54676 10.8325Z" fill="black"/>
</svg>
