<svg width="593" height="124" viewBox="0 0 593 124" fill="#E3E9E7" stroke='black' xmlns="http://www.w3.org/2000/svg">
<path d="M0 2.71875V122.456H14.0033V2.71875H0Z" fill="#F6F6F6" stroke='black'/>
<!-- this path is L -->
<path d="M326.936 10.8644L305.308 123.93H377.658L380.148 111.279H321.801L340.939 10.8644H326.936Z" fill="#E3E4ED" stroke='black'/>
<!-- this path is A -->
<path d="M463.768 95.6242L468.124 123.93H482.439L463.145 10.8644H447.586L384.883 123.93H399.508L414.756 95.6242H463.768ZM421.758 82.9735L452.876 23.9895H453.187L461.589 82.9735H421.758Z" fill="#E1E9E7" stroke='black'/>
<!-- this path is B -->
<path d="M591.42 40.2773C594.843 22.25 583.018 10.8644 560.302 10.8644H515.803L494.176 123.93H542.565C565.592 123.93 582.085 112.386 585.975 91.9871C589.242 74.5924 580.685 65.1043 569.482 63.0486L570.416 62.8905C580.062 59.7278 588.931 53.7187 591.42 40.2773ZM520.782 58.1464L527.472 23.5151H562.325C575.083 23.5151 579.44 30.1567 577.573 39.961C575.395 50.7141 569.326 58.1464 553.456 58.1464H520.782ZM518.448 70.7971H557.19C568.86 70.7971 574.461 78.3876 572.283 90.0895C570.104 101.159 563.57 111.279 545.676 111.279H510.669L518.448 70.7971Z" fill="#E9EFED" stroke='black'/>
<rect x="76.0032" y="14" width="15" height="107" fill="#F6F6F6" stroke='black'/>
<path d="M91.0034 14.2188C91.231 6.93933 98.8934 2.81556 105.453 2.4185C112.858 1.97054 126.325 2.41557 134.003 2.41841C134.003 2.41841 134.003 5.47269 134.003 6.49079C134.003 11.0722 134.003 14.1266 134.003 14.1266C134.003 14.1266 122.832 14.1935 118.9 14.1883C109.601 14.1883 100.302 14.1543 91.0034 14.0865V14.2188Z" fill="#F6F6F6" stroke='black'/>
<path d="M76.0034 14.2188C75.7758 6.93933 68.1133 2.81556 61.5537 2.4185C54.1487 1.97054 40.6819 2.41557 33.0034 2.41841C33.0034 2.41841 33.0034 5.47269 33.0034 6.49079C33.0034 11.0722 33.0034 14.1266 33.0034 14.1266C33.0034 14.1266 44.1752 14.1935 48.1065 14.1883C57.4054 14.1883 66.7044 14.1543 76.0034 14.0865V14.2188Z" fill="#F6F6F6" stroke='black'/>
<!-- this path is O right side -->
<path d="M226.003 18.2187C232.003 29.7188 242.003 70.2187 226.003 104.219C254.503 94.7188 268.003 39.7187 226.003 18.2187Z" fill="#E3E9F0" stroke='black'/>
<!-- this path is O left side -->
<path d="M162.679 18.2187C156.679 29.7188 146.679 70.2187 162.679 104.219C134.179 94.7188 120.679 39.7187 162.679 18.2187Z" fill="#EBEDF3" stroke='black'/>
<!-- this path is O top side -->

<path d="M162.003 19.2189C176.503 14.2189 200.503 7.71891 227.003 19.2189C218.003 0.21875 182.003 -12.2803 162.003 19.2189Z" fill="#E5EBF0" stroke='black'/>
<path d="M227.003 104.219C212.503 109.219 188.503 115.719 162.003 104.219C171.003 123.219 207.003 135.718 227.003 104.219Z" fill="#E9E8EF" stroke='black'/>
</svg>
