<svg width="77" height="9" viewBox="0 0 77 9" fill="none" xmlns="http://www.w3.org/2000/svg">
<path d="M3.52637 0.719727H4.66406L2.22754 3.98145L4.8252 8H3.66309L1.52441 4.58203L0.943359 5.26074V8H0.0302734V0.719727H0.943359V4.22559L3.52637 0.719727ZM8.7998 1.75488C8.57845 1.48145 8.31315 1.34473 8.00391 1.34473C7.69466 1.34473 7.42936 1.48145 7.20801 1.75488C6.98665 2.02507 6.82389 2.38314 6.71973 2.8291C6.61556 3.27507 6.56348 3.78451 6.56348 4.35742C6.56348 4.93034 6.61556 5.43978 6.71973 5.88574C6.82389 6.33171 6.98665 6.68978 7.20801 6.95996C7.42936 7.23014 7.69466 7.36523 8.00391 7.36523C8.31315 7.36523 8.57845 7.23014 8.7998 6.95996C9.02116 6.68978 9.18392 6.33171 9.28809 5.88574C9.39225 5.43978 9.44434 4.93034 9.44434 4.35742C9.44434 3.78451 9.39225 3.27507 9.28809 2.8291C9.18392 2.38314 9.02116 2.02507 8.7998 1.75488ZM9.07324 7.81934C8.76074 8.02116 8.4043 8.12207 8.00391 8.12207C7.60352 8.12207 7.24707 8.02116 6.93457 7.81934C6.62207 7.61426 6.36979 7.33594 6.17773 6.98438C5.79688 6.27799 5.60645 5.40072 5.60645 4.35254C5.60645 3.05697 5.86198 2.06901 6.37305 1.38867C6.55208 1.14779 6.77995 0.955729 7.05664 0.8125C7.33659 0.669271 7.65234 0.597656 8.00391 0.597656C8.35547 0.597656 8.67122 0.669271 8.95117 0.8125C9.45898 1.07292 9.82682 1.52702 10.0547 2.1748C10.2858 2.81934 10.4014 3.54525 10.4014 4.35254C10.4014 5.40072 10.2109 6.27799 9.83008 6.98438C9.63802 7.33594 9.38574 7.61426 9.07324 7.81934ZM12.0469 6.72559C12.5677 7.15202 13.1878 7.36523 13.9072 7.36523C14.2979 7.36523 14.599 7.24642 14.8105 7.00879C15.0221 6.7679 15.1279 6.45703 15.1279 6.07617C15.1279 5.69531 15.0173 5.40723 14.7959 5.21191C14.5778 5.01335 14.3125 4.85059 14 4.72363L13.707 4.60645C13.1536 4.38509 12.7695 4.19792 12.5547 4.04492C12.3431 3.89193 12.1885 3.75195 12.0908 3.625C11.8597 3.32552 11.7441 2.95605 11.7441 2.5166C11.7441 1.90788 11.9508 1.43587 12.3643 1.10059C12.7777 0.762044 13.3099 0.592773 13.9609 0.592773C14.7812 0.592773 15.4209 0.773438 15.8799 1.13477L15.5381 1.83789C15.1149 1.50911 14.6055 1.34473 14.0098 1.34473C13.6257 1.34473 13.3197 1.45052 13.0918 1.66211C12.8672 1.87044 12.7549 2.16341 12.7549 2.54102C12.7549 2.91536 12.9616 3.22298 13.375 3.46387C13.5312 3.55176 13.7673 3.65755 14.083 3.78125C14.402 3.90495 14.7194 4.0498 15.0352 4.21582C15.3542 4.38184 15.6211 4.60645 15.8359 4.88965C16.0508 5.17285 16.1582 5.53418 16.1582 5.97363C16.1582 6.6735 15.9548 7.20736 15.5479 7.5752C15.1442 7.93978 14.5908 8.12207 13.8877 8.12207C13.012 8.12207 12.2829 7.92839 11.7002 7.54102L12.0469 6.72559ZM18.6533 1.99414V8H17.7451V0.719727H18.9902L20.0303 4.08398L21.0703 0.719727H22.2861V8H21.4023V1.99414L20.5381 4.8457H19.5176L18.6533 1.99414ZM26.8174 1.75488C26.596 1.48145 26.3307 1.34473 26.0215 1.34473C25.7122 1.34473 25.4469 1.48145 25.2256 1.75488C25.0042 2.02507 24.8415 2.38314 24.7373 2.8291C24.6331 3.27507 24.5811 3.78451 24.5811 4.35742C24.5811 4.93034 24.6331 5.43978 24.7373 5.88574C24.8415 6.33171 25.0042 6.68978 25.2256 6.95996C25.4469 7.23014 25.7122 7.36523 26.0215 7.36523C26.3307 7.36523 26.596 7.23014 26.8174 6.95996C27.0387 6.68978 27.2015 6.33171 27.3057 5.88574C27.4098 5.43978 27.4619 4.93034 27.4619 4.35742C27.4619 3.78451 27.4098 3.27507 27.3057 2.8291C27.2015 2.38314 27.0387 2.02507 26.8174 1.75488ZM27.0908 7.81934C26.7783 8.02116 26.4219 8.12207 26.0215 8.12207C25.6211 8.12207 25.2646 8.02116 24.9521 7.81934C24.6396 7.61426 24.3874 7.33594 24.1953 6.98438C23.8145 6.27799 23.624 5.40072 23.624 4.35254C23.624 3.05697 23.8796 2.06901 24.3906 1.38867C24.5697 1.14779 24.7975 0.955729 25.0742 0.8125C25.3542 0.669271 25.6699 0.597656 26.0215 0.597656C26.373 0.597656 26.6888 0.669271 26.9688 0.8125C27.4766 1.07292 27.8444 1.52702 28.0723 2.1748C28.3034 2.81934 28.4189 3.54525 28.4189 4.35254C28.4189 5.40072 28.2285 6.27799 27.8477 6.98438C27.6556 7.33594 27.4033 7.61426 27.0908 7.81934ZM33.751 0.719727H34.752L32.5547 8H31.4951L29.3076 0.719727H30.3086L32.042 6.91113L33.751 0.719727ZM35.9824 1.43262V0.719727H40.0889V1.43262H38.4727V7.28711H40.0889V8H35.9824V7.28711H37.5596V1.43262H35.9824ZM42.0762 6.72559C42.597 7.15202 43.2171 7.36523 43.9365 7.36523C44.3271 7.36523 44.6283 7.24642 44.8398 7.00879C45.0514 6.7679 45.1572 6.45703 45.1572 6.07617C45.1572 5.69531 45.0465 5.40723 44.8252 5.21191C44.6071 5.01335 44.3418 4.85059 44.0293 4.72363L43.7363 4.60645C43.1829 4.38509 42.7988 4.19792 42.584 4.04492C42.3724 3.89193 42.2178 3.75195 42.1201 3.625C41.889 3.32552 41.7734 2.95605 41.7734 2.5166C41.7734 1.90788 41.9801 1.43587 42.3936 1.10059C42.807 0.762044 43.3392 0.592773 43.9902 0.592773C44.8105 0.592773 45.4502 0.773438 45.9092 1.13477L45.5674 1.83789C45.1442 1.50911 44.6348 1.34473 44.0391 1.34473C43.6549 1.34473 43.349 1.45052 43.1211 1.66211C42.8965 1.87044 42.7842 2.16341 42.7842 2.54102C42.7842 2.91536 42.9909 3.22298 43.4043 3.46387C43.5605 3.55176 43.7965 3.65755 44.1123 3.78125C44.4313 3.90495 44.7487 4.0498 45.0645 4.21582C45.3835 4.38184 45.6504 4.60645 45.8652 4.88965C46.0801 5.17285 46.1875 5.53418 46.1875 5.97363C46.1875 6.6735 45.984 7.20736 45.5771 7.5752C45.1735 7.93978 44.6201 8.12207 43.917 8.12207C43.0413 8.12207 42.3122 7.92839 41.7295 7.54102L42.0762 6.72559ZM47.9941 1.43262V0.719727H52.1006V1.43262H50.4844V7.28711H52.1006V8H47.9941V7.28711H49.5713V1.43262H47.9941ZM56.8467 1.75488C56.6253 1.48145 56.36 1.34473 56.0508 1.34473C55.7415 1.34473 55.4762 1.48145 55.2549 1.75488C55.0335 2.02507 54.8708 2.38314 54.7666 2.8291C54.6624 3.27507 54.6104 3.78451 54.6104 4.35742C54.6104 4.93034 54.6624 5.43978 54.7666 5.88574C54.8708 6.33171 55.0335 6.68978 55.2549 6.95996C55.4762 7.23014 55.7415 7.36523 56.0508 7.36523C56.36 7.36523 56.6253 7.23014 56.8467 6.95996C57.068 6.68978 57.2308 6.33171 57.335 5.88574C57.4391 5.43978 57.4912 4.93034 57.4912 4.35742C57.4912 3.78451 57.4391 3.27507 57.335 2.8291C57.2308 2.38314 57.068 2.02507 56.8467 1.75488ZM57.1201 7.81934C56.8076 8.02116 56.4512 8.12207 56.0508 8.12207C55.6504 8.12207 55.2939 8.02116 54.9814 7.81934C54.6689 7.61426 54.4167 7.33594 54.2246 6.98438C53.8438 6.27799 53.6533 5.40072 53.6533 4.35254C53.6533 3.05697 53.9089 2.06901 54.4199 1.38867C54.599 1.14779 54.8268 0.955729 55.1035 0.8125C55.3835 0.669271 55.6992 0.597656 56.0508 0.597656C56.4023 0.597656 56.7181 0.669271 56.998 0.8125C57.5059 1.07292 57.8737 1.52702 58.1016 2.1748C58.3327 2.81934 58.4482 3.54525 58.4482 4.35254C58.4482 5.40072 58.2578 6.27799 57.877 6.98438C57.6849 7.33594 57.4326 7.61426 57.1201 7.81934ZM64.3223 8H63.248L60.6211 2.11133V8H59.791V0.719727H60.8408L63.5068 6.58887V0.719727H64.3223V8ZM67.0371 4.66016V7.28711H70.4746L70.4014 8H66.124V0.719727H70.3135L70.2354 1.43262H67.0371V3.88379H70.0742V4.66016H67.0371ZM72.1055 6.72559C72.6263 7.15202 73.2464 7.36523 73.9658 7.36523C74.3564 7.36523 74.6576 7.24642 74.8691 7.00879C75.0807 6.7679 75.1865 6.45703 75.1865 6.07617C75.1865 5.69531 75.0758 5.40723 74.8545 5.21191C74.6364 5.01335 74.3711 4.85059 74.0586 4.72363L73.7656 4.60645C73.2122 4.38509 72.8281 4.19792 72.6133 4.04492C72.4017 3.89193 72.2471 3.75195 72.1494 3.625C71.9183 3.32552 71.8027 2.95605 71.8027 2.5166C71.8027 1.90788 72.0094 1.43587 72.4229 1.10059C72.8363 0.762044 73.3685 0.592773 74.0195 0.592773C74.8398 0.592773 75.4795 0.773438 75.9385 1.13477L75.5967 1.83789C75.1735 1.50911 74.6641 1.34473 74.0684 1.34473C73.6842 1.34473 73.3783 1.45052 73.1504 1.66211C72.9258 1.87044 72.8135 2.16341 72.8135 2.54102C72.8135 2.91536 73.0202 3.22298 73.4336 3.46387C73.5898 3.55176 73.8258 3.65755 74.1416 3.78125C74.4606 3.90495 74.778 4.0498 75.0938 4.21582C75.4128 4.38184 75.6797 4.60645 75.8945 4.88965C76.1094 5.17285 76.2168 5.53418 76.2168 5.97363C76.2168 6.6735 76.0133 7.20736 75.6064 7.5752C75.2028 7.93978 74.6494 8.12207 73.9463 8.12207C73.0706 8.12207 72.3415 7.92839 71.7588 7.54102L72.1055 6.72559Z" fill="black" fill-opacity="0.8"/>
</svg>
