<svg width="40" height="20" viewBox="0 0 40 20" fill="none" xmlns="http://www.w3.org/2000/svg">
<circle r="6.82139" transform="matrix(-1 -4.37114e-08 -4.37114e-08 1 30.4082 10.1611)" stroke="black" stroke-width="0.507611"/>
<path d="M26.2175 10.1611C26.2175 12.073 26.7222 13.7921 27.5249 15.0256C28.3292 16.2615 29.4106 16.9825 30.5678 16.9825C31.7251 16.9825 32.8065 16.2615 33.6107 15.0256C34.4134 13.7921 34.9182 12.073 34.9182 10.1611C34.9182 8.24927 34.4134 6.53013 33.6107 5.29665C32.8065 4.06078 31.7251 3.33974 30.5678 3.33974C29.4106 3.33974 28.3292 4.06078 27.5249 5.29665C26.7222 6.53013 26.2175 8.24927 26.2175 10.1611Z" stroke="black" stroke-width="0.507611"/>
<path d="M28.8485 10.1611C28.8485 12.0986 29.0678 13.8434 29.4171 15.0959C29.5922 15.7239 29.7961 16.2137 30.0117 16.5406C30.2339 16.8776 30.4271 16.9825 30.5679 16.9825C30.7086 16.9825 30.9018 16.8776 31.124 16.5406C31.3396 16.2137 31.5435 15.7239 31.7187 15.0959C32.068 13.8434 32.2873 12.0986 32.2873 10.1611C32.2873 8.22364 32.068 6.47886 31.7187 5.2264C31.5435 4.59839 31.3396 4.10857 31.124 3.78166C30.9018 3.44462 30.7086 3.33974 30.5679 3.33974C30.4271 3.33974 30.2339 3.44462 30.0117 3.78166C29.7961 4.10857 29.5922 4.59839 29.4171 5.2264C29.0678 6.47886 28.8485 8.22364 28.8485 10.1611Z" stroke="black" stroke-width="0.507611"/>
<line x1="23.3333" y1="10.0671" x2="37.1458" y2="10.0671" stroke="black" stroke-width="0.506458"/>
<path d="M35.8303 6.375C35.8303 7.10152 33.3272 7.69048 30.2395 7.69048C27.1518 7.69048 24.6487 7.10152 24.6487 6.375" stroke="black" stroke-width="0.506458"/>
<path d="M24.6488 14.2695C24.6488 13.543 27.1519 12.9541 30.2396 12.9541C33.3273 12.9541 35.8304 13.543 35.8304 14.2695" stroke="black" stroke-width="0.506458"/>
<rect width="20" height="20" fill="black"/>
<rect width="20" height="20" fill="black"/>
<rect x="20.3333" y="0.333333" width="19.3333" height="19.3333" stroke="black" stroke-width="0.666667"/>
<circle r="6.82139" transform="matrix(-1 -4.37114e-08 -4.37114e-08 1 10.4082 10.1611)" stroke="white" stroke-width="0.507611"/>
<path d="M6.21747 10.1611C6.21747 12.073 6.72223 13.7921 7.52492 15.0256C8.32916 16.2615 9.41058 16.9825 10.5678 16.9825C11.7251 16.9825 12.8065 16.2615 13.6107 15.0256C14.4134 13.7921 14.9182 12.073 14.9182 10.1611C14.9182 8.24927 14.4134 6.53013 13.6107 5.29665C12.8065 4.06078 11.7251 3.33974 10.5678 3.33974C9.41058 3.33974 8.32916 4.06078 7.52492 5.29665C6.72223 6.53013 6.21747 8.24927 6.21747 10.1611Z" stroke="white" stroke-width="0.507611"/>
<path d="M8.84845 10.1611C8.84845 12.0986 9.06776 13.8434 9.41706 15.0959C9.59221 15.7239 9.79613 16.2137 10.0117 16.5406C10.2339 16.8776 10.4271 16.9825 10.5679 16.9825C10.7086 16.9825 10.9018 16.8776 11.124 16.5406C11.3396 16.2137 11.5435 15.7239 11.7187 15.0959C12.068 13.8434 12.2873 12.0986 12.2873 10.1611C12.2873 8.22364 12.068 6.47886 11.7187 5.2264C11.5435 4.59839 11.3396 4.10857 11.124 3.78166C10.9018 3.44462 10.7086 3.33974 10.5679 3.33974C10.4271 3.33974 10.2339 3.44462 10.0117 3.78166C9.79613 4.10857 9.59221 4.59839 9.41706 5.2264C9.06776 6.47886 8.84845 8.22364 8.84845 10.1611Z" stroke="white" stroke-width="0.507611"/>
<line x1="3.33331" y1="10.0671" x2="17.1458" y2="10.0671" stroke="white" stroke-width="0.506458"/>
<path d="M15.8303 6.375C15.8303 7.10152 13.3272 7.69048 10.2395 7.69048C7.15182 7.69048 4.64874 7.10152 4.64874 6.375" stroke="white" stroke-width="0.506458"/>
<path d="M4.64883 14.2695C4.64883 13.543 7.15191 12.9541 10.2396 12.9541C13.3273 12.9541 15.8304 13.543 15.8304 14.2695" stroke="white" stroke-width="0.506458"/>
</svg>
