<svg width="113" height="9" viewBox="0 0 113 9" fill="none" xmlns="http://www.w3.org/2000/svg">
<path opacity="0.7" d="M0.647456 6.84805L0.647456 0.607847L1.08843 0.39984L2.66512 0.39984C3.08391 0.39984 3.46941 0.473336 3.82164 0.620327C4.4512 0.881029 4.76599 1.26515 4.76599 1.77268L4.76599 3.18713C4.76599 3.69467 4.4512 4.07878 3.82164 4.33949C3.46941 4.48648 3.08391 4.55997 2.66512 4.55997L1.47948 4.55997L1.47948 6.47363L0.689058 6.84805H0.647456ZM1.47948 3.81115L2.66512 3.81115C2.94246 3.81115 3.19762 3.76539 3.43059 3.67386C3.76617 3.54074 3.93396 3.3785 3.93396 3.18713L3.93396 1.77268C3.93396 1.57854 3.76617 1.4163 3.43059 1.28595C3.19762 1.19443 2.94246 1.14866 2.66512 1.14866L1.47948 1.14866L1.47948 3.81115ZM8.81063 5.60001C8.81063 5.73868 8.89661 5.84268 9.06856 5.91202C9.24329 5.98135 9.45546 6.01602 9.70506 6.01602C9.95467 6.01602 10.1655 5.98135 10.3374 5.91202C10.5121 5.84268 10.5995 5.73868 10.5995 5.60001L10.5995 3.18713C10.5995 3.04846 10.5121 2.94445 10.3374 2.87512C10.1655 2.80578 9.95467 2.77112 9.70506 2.77112C9.45546 2.77112 9.24329 2.80578 9.06856 2.87512C8.89661 2.94445 8.81063 3.04846 8.81063 3.18713L8.81063 5.60001ZM7.97861 5.74561L7.97861 3.04152C7.97861 2.67543 8.23792 2.38977 8.75655 2.18454C9.03667 2.07637 9.35284 2.02229 9.70506 2.02229C10.0573 2.02229 10.3735 2.07637 10.6536 2.18454C11.1722 2.38977 11.4315 2.67543 11.4315 3.04152L11.4315 5.74561C11.4315 6.1117 11.1722 6.39736 10.6536 6.6026C10.3735 6.71076 10.0573 6.76484 9.70506 6.76484C9.35284 6.76484 9.03667 6.71076 8.75655 6.6026C8.23792 6.39736 7.97861 6.1117 7.97861 5.74561ZM14.8521 2.3135L15.6426 1.93909H15.6842L15.6842 5.60001C15.6842 5.73868 15.7701 5.84268 15.9421 5.91202C16.1168 5.98135 16.329 6.01602 16.5786 6.01602C16.8282 6.01602 17.039 5.98135 17.2109 5.91202C17.3857 5.84268 17.473 5.73868 17.473 5.60001L17.473 2.3135L18.2635 1.93909H18.3051L18.3051 5.60001C18.3051 5.73868 18.391 5.84268 18.563 5.91202C18.7377 5.98135 18.9499 6.01602 19.1995 6.01602C19.4491 6.01602 19.6599 5.98135 19.8318 5.91202C20.0066 5.84268 20.0939 5.73868 20.0939 5.60001L20.0939 2.3135L20.8843 1.93909L20.9259 1.93909L20.9259 5.74561C20.9259 6.11725 20.6666 6.40291 20.148 6.6026C19.8679 6.71076 19.5517 6.76484 19.1995 6.76484C18.8528 6.76484 18.5366 6.71076 18.251 6.6026C18.1123 6.5499 17.9917 6.49027 17.889 6.42371C17.7864 6.49027 17.6658 6.5499 17.5271 6.6026C17.2414 6.71076 16.9253 6.76484 16.5786 6.76484C16.2264 6.76484 15.9102 6.71076 15.6301 6.6026C15.1115 6.40291 14.8521 6.11725 14.8521 5.74561L14.8521 2.3135ZM27.7995 4.8387V5.74561C27.7995 6.1117 27.5402 6.39736 27.0215 6.6026C26.7414 6.71076 26.4252 6.76484 26.073 6.76484C25.7208 6.76484 25.4046 6.71076 25.1245 6.6026C24.6059 6.39736 24.3466 6.1117 24.3466 5.74561L24.3466 3.04152C24.3466 2.67543 24.6059 2.38977 25.1245 2.18454C25.4046 2.07637 25.7208 2.02229 26.073 2.02229C26.4252 2.02229 26.7414 2.07637 27.0215 2.18454C27.5402 2.38977 27.7995 2.67543 27.7995 3.04152V3.57402L25.1786 5.60001C25.1786 5.73868 25.2646 5.84268 25.4365 5.91202C25.6112 5.98135 25.8234 6.01602 26.073 6.01602C26.3226 6.01602 26.5334 5.98135 26.7054 5.91202C26.8801 5.84268 26.9675 5.73868 26.9675 5.60001V5.21311L27.7579 4.8387H27.7995ZM25.1786 4.72222L26.9675 3.28281V3.18713C26.9675 3.04846 26.8801 2.94445 26.7054 2.87512C26.5334 2.80578 26.3226 2.77112 26.073 2.77112C25.8234 2.77112 25.6112 2.80578 25.4365 2.87512C25.2646 2.94445 25.1786 3.04846 25.1786 3.18713L25.1786 4.72222ZM31.2201 6.84805L31.2201 3.04152C31.2201 2.66989 31.4794 2.38422 31.998 2.18454C32.2782 2.07637 32.5943 2.02229 32.9466 2.02229L33.5082 2.02229V2.06389L33.1754 2.77112H32.9466C32.697 2.77112 32.4848 2.80578 32.3101 2.87512C32.1381 2.94445 32.0521 3.04846 32.0521 3.18713L32.0521 6.47363L31.2617 6.84805H31.2201ZM39.8409 4.8387L39.8409 5.74561C39.8409 6.1117 39.5816 6.39736 39.063 6.6026C38.7828 6.71076 38.4667 6.76484 38.1144 6.76484C37.7622 6.76484 37.446 6.71076 37.1659 6.6026C36.6473 6.39736 36.388 6.1117 36.388 5.74561L36.388 3.04152C36.388 2.67543 36.6473 2.38977 37.1659 2.18454C37.446 2.07637 37.7622 2.02229 38.1144 2.02229C38.4667 2.02229 38.7828 2.07637 39.063 2.18454C39.5816 2.38977 39.8409 2.67543 39.8409 3.04152V3.57402L37.22 5.60001C37.22 5.73868 37.306 5.84268 37.4779 5.91202C37.6527 5.98135 37.8648 6.01602 38.1144 6.01602C38.3641 6.01602 38.5748 5.98135 38.7468 5.91202C38.9215 5.84268 39.0089 5.73868 39.0089 5.60001V5.21311L39.7993 4.8387H39.8409ZM37.22 4.72222L39.0089 3.28281V3.18713C39.0089 3.04846 38.9215 2.94445 38.7468 2.87512C38.5748 2.80578 38.3641 2.77112 38.1144 2.77112C37.8648 2.77112 37.6527 2.80578 37.4779 2.87512C37.306 2.94445 37.22 3.04846 37.22 3.18713V4.72222ZM43.2615 5.74561C43.2615 5.74561 43.2615 4.84425 43.2615 3.04152C43.2615 2.66989 43.5208 2.38422 44.0395 2.18454C44.3196 2.07637 44.6358 2.02229 44.988 2.02229C45.318 2.02229 45.6162 2.06944 45.8824 2.16374L45.8824 0.607847L46.6728 0.233435H46.7144L46.7144 5.74561C46.7144 6.11725 46.4551 6.40291 45.9365 6.6026C45.6564 6.71076 45.3402 6.76484 44.988 6.76484C44.6358 6.76484 44.3196 6.71076 44.0395 6.6026C43.5208 6.39736 43.2615 6.1117 43.2615 5.74561ZM44.0936 5.60001C44.0936 5.73868 44.1795 5.84268 44.3515 5.91202C44.5262 5.98135 44.7384 6.01602 44.988 6.01602C45.2376 6.01602 45.4484 5.98135 45.6203 5.91202C45.795 5.84268 45.8824 5.73868 45.8824 5.60001L45.8824 3.18713C45.8824 3.04846 45.795 2.94445 45.6203 2.87512C45.4484 2.80578 45.2376 2.77112 44.988 2.77112C44.7384 2.77112 44.5262 2.80578 44.3515 2.87512C44.1795 2.94445 44.0936 3.04846 44.0936 3.18713L44.0936 5.60001ZM56.0518 5.74561L56.0518 0.607847L56.8422 0.233435L56.8838 0.233435L56.8838 2.16374C57.15 2.06944 57.4482 2.02229 57.7782 2.02229C58.1305 2.02229 58.4466 2.07637 58.7267 2.18454C59.2454 2.38977 59.5047 2.67543 59.5047 3.04152L59.5047 5.74561C59.5047 6.11725 59.2454 6.40291 58.7267 6.6026C58.4466 6.71076 58.1305 6.76484 57.7782 6.76484C57.426 6.76484 57.1098 6.71076 56.8297 6.6026C56.3111 6.39736 56.0518 6.1117 56.0518 5.74561ZM56.8838 3.18713L56.8838 5.60001C56.8838 5.73868 56.9698 5.84268 57.1417 5.91202C57.3165 5.98135 57.5286 6.01602 57.7782 6.01602C58.0278 6.01602 58.2386 5.98135 58.4106 5.91202C58.5853 5.84268 58.6727 5.73868 58.6727 5.60001L58.6727 3.18713C58.6727 3.04846 58.5853 2.94445 58.4106 2.87512C58.2386 2.80578 58.0278 2.77112 57.7782 2.77112C57.5286 2.77112 57.3165 2.80578 57.1417 2.87512C56.9698 2.94445 56.8838 3.04846 56.8838 3.18713ZM62.9253 2.3135L63.7157 1.93909H63.7573L63.7573 5.60001C63.7573 5.73868 63.8433 5.84268 64.0153 5.91202C64.19 5.98135 64.4022 6.01602 64.6518 6.01602C64.9014 6.01602 65.1122 5.98135 65.2841 5.91202C65.4588 5.84268 65.5462 5.73868 65.5462 5.60001L65.5462 2.3135L66.3366 1.93909H66.3782L66.3782 7.45127C66.3782 7.8229 66.1189 8.10857 65.6003 8.30825C65.3202 8.41642 65.004 8.4705 64.6518 8.4705L63.358 8.4705V8.4289L63.6908 7.72167L64.6518 7.72167C64.9014 7.72167 65.1122 7.68701 65.2841 7.61767C65.4588 7.54833 65.5462 7.44433 65.5462 7.30566V6.6234C65.2799 6.7177 64.9818 6.76484 64.6518 6.76484C64.2995 6.76484 63.9834 6.71076 63.7033 6.6026C63.1846 6.40291 62.9253 6.11725 62.9253 5.74561L62.9253 2.3135ZM75.778 1.18611C75.6809 1.08626 75.6324 0.967005 75.6324 0.828334C75.6324 0.686889 75.6809 0.566246 75.778 0.466402C75.875 0.366559 75.9929 0.316638 76.1316 0.316638C76.2702 0.316638 76.3881 0.366559 76.4852 0.466402C76.5823 0.566246 76.6308 0.686889 76.6308 0.828334C76.6308 0.967005 76.5823 1.08626 76.4852 1.18611C76.3881 1.28595 76.2702 1.33587 76.1316 1.33587C75.9929 1.33587 75.875 1.28595 75.778 1.18611ZM75.7156 6.84805L75.7156 2.3135L76.506 1.93909H76.5476L76.5476 6.47363L75.7572 6.84805H75.7156ZM80.7254 6.84805V2.86264L79.6562 2.86264L79.6562 2.82104L79.9932 2.10549L80.7254 2.10549V0.607847L81.5158 0.233435H81.5574V2.10549L82.6265 2.10549V2.1471L82.2896 2.86264L81.5574 2.86264V6.47363L80.767 6.84805H80.7254ZM86.3592 5.60001C86.3592 5.73868 86.4451 5.84268 86.6171 5.91202C86.7918 5.98135 87.004 6.01602 87.2536 6.01602C87.5032 6.01602 87.714 5.98135 87.8859 5.91202C88.0607 5.84268 88.148 5.73868 88.148 5.60001V3.18713C88.148 3.04846 88.0607 2.94445 87.8859 2.87512C87.714 2.80578 87.5032 2.77112 87.2536 2.77112C87.004 2.77112 86.7918 2.80578 86.6171 2.87512C86.4451 2.94445 86.3592 3.04846 86.3592 3.18713V5.60001ZM85.5271 5.74561V3.04152C85.5271 2.67543 85.7865 2.38977 86.3051 2.18454C86.5852 2.07637 86.9014 2.02229 87.2536 2.02229C87.6058 2.02229 87.922 2.07637 88.2021 2.18454C88.7207 2.38977 88.9801 2.67543 88.9801 3.04152V5.74561C88.9801 6.1117 88.7207 6.39736 88.2021 6.6026C87.922 6.71076 87.6058 6.76484 87.2536 6.76484C86.9014 6.76484 86.5852 6.71076 86.3051 6.6026C85.7865 6.39736 85.5271 6.1117 85.5271 5.74561ZM98.1094 6.84805L98.1094 0.607847L98.8998 0.233435L98.9414 0.233435L98.9414 6.47363L98.151 6.84805H98.1094ZM105.732 6.47363L104.941 6.84805L104.9 6.84805V6.6234C104.633 6.7177 104.349 6.76484 104.047 6.76484C103.722 6.76484 103.42 6.71076 103.14 6.6026C102.621 6.39736 102.362 6.1117 102.362 5.74561V4.62237C102.362 4.25074 102.621 3.96507 103.14 3.76539C103.42 3.65722 103.722 3.60314 104.047 3.60314C104.352 3.60314 104.636 3.65029 104.9 3.74459V3.18713C104.9 3.04846 104.812 2.94445 104.638 2.87512C104.466 2.80578 104.255 2.77112 104.005 2.77112L102.994 2.77112V2.72951L103.327 2.02229L104.005 2.02229C104.358 2.02229 104.674 2.07637 104.954 2.18454C105.472 2.38422 105.732 2.66989 105.732 3.04152V6.47363ZM103.194 5.60001C103.194 5.73868 103.28 5.84268 103.452 5.91202C103.627 5.98135 103.825 6.01602 104.047 6.01602C104.269 6.01602 104.466 5.98135 104.638 5.91202C104.812 5.84268 104.9 5.73868 104.9 5.60001V4.76798C104.9 4.62931 104.812 4.52531 104.638 4.45597C104.466 4.38663 104.269 4.35197 104.047 4.35197C103.825 4.35197 103.627 4.38663 103.452 4.45597C103.28 4.52531 103.194 4.62931 103.194 4.76798V5.60001ZM109.36 5.74561L109.36 0.607847L110.151 0.233435L110.192 0.233435V2.16374C110.459 2.06944 110.757 2.02229 111.087 2.02229C111.439 2.02229 111.755 2.07637 112.035 2.18454C112.554 2.38977 112.813 2.67543 112.813 3.04152V5.74561C112.813 6.11725 112.554 6.40291 112.035 6.6026C111.755 6.71076 111.439 6.76484 111.087 6.76484C110.735 6.76484 110.418 6.71076 110.138 6.6026C109.62 6.39736 109.36 6.1117 109.36 5.74561ZM110.192 3.18713V5.60001C110.192 5.73868 110.278 5.84268 110.45 5.91202C110.625 5.98135 110.837 6.01602 111.087 6.01602C111.336 6.01602 111.547 5.98135 111.719 5.91202C111.894 5.84268 111.981 5.73868 111.981 5.60001V3.18713C111.981 3.04846 111.894 2.94445 111.719 2.87512C111.547 2.80578 111.336 2.77112 111.087 2.77112C110.837 2.77112 110.625 2.80578 110.45 2.87512C110.278 2.94445 110.192 3.04846 110.192 3.18713Z" fill="black"/>
</svg>
