<svg width="33" height="33" viewBox="0 0 33 33" fill="none" xmlns="http://www.w3.org/2000/svg">
<path d="M2.84118 16.6738L5.41133 16.6738L5.41133 19.244L2.84118 19.244L2.84118 16.6738Z" fill="black"/>
<path d="M10.6869 22.0847L13.2571 22.0847L13.2571 24.6548L10.6869 24.6548L10.6869 22.0847Z" fill="black"/>
<path d="M13.5276 16.6738L16.0978 16.6738L16.0978 19.244L13.5276 19.244L13.5276 16.6738Z" fill="black"/>
<path d="M13.5276 22.0847L16.0978 22.0847L16.0978 24.6548L13.5276 24.6548L13.5276 22.0847Z" fill="black"/>
<path d="M13.5276 24.7901L16.0978 24.7901L16.0978 27.3602L13.5276 27.3602L13.5276 24.7901Z" fill="black"/>
<path d="M13.5276 30.2009L16.0978 30.2009L16.0978 32.7711H13.5276L13.5276 30.2009Z" fill="black"/>
<path d="M10.6869 27.4955L13.2571 27.4955L13.2571 30.0657L10.6869 30.0657L10.6869 27.4955Z" fill="black"/>
<path d="M0.271031 27.4955L2.84118 27.4955L2.84118 30.0657L0.271031 30.0657L0.271031 27.4955Z" fill="black"/>
<path d="M0.000488281 16.6738L2.57064 16.6738L2.57064 19.244L0.000488281 19.244L0.000488281 16.6738Z" fill="black"/>
<path d="M10.6869 16.6738L13.2571 16.6738L13.2571 19.244L10.6869 19.244L10.6869 16.6738Z" fill="black"/>
<path d="M0.000488281 19.244L2.57064 19.244L2.57064 21.8141L0.000488281 21.8141L0.000488281 19.244Z" fill="black"/>
<path d="M5.41133 19.244L7.98149 19.244L7.98149 21.8141L5.41133 21.8141L5.41133 19.244Z" fill="black"/>
<path d="M0.000488281 22.0847L2.57064 22.0847L2.57064 24.6548L0.000488281 24.6548L0.000488281 22.0847Z" fill="black"/>
<path d="M5.41133 22.0847L7.98149 22.0847L7.98149 24.6548L5.41133 24.6548L5.41133 22.0847Z" fill="black"/>
<path d="M2.70591 24.6548L5.27606 24.6548L5.27606 27.225H2.70591L2.70591 24.6548Z" fill="black"/>
<path d="M8.11676 24.6548L10.6869 24.6548L10.6869 27.225L8.11676 27.225L8.11676 24.6548Z" fill="black"/>
<path d="M8.11676 30.0657L10.6869 30.0657L10.6869 32.6358H8.11676L8.11676 30.0657Z" fill="black"/>
<path d="M5.27606 27.225L7.84622 27.225L7.84622 29.7951L5.27606 29.7951L5.27606 27.225Z" fill="black"/>
<path d="M2.70591 30.0657H5.27606L5.27606 32.6358H2.70591L2.70591 30.0657Z" fill="black"/>
<path d="M19.5131 16.6738L22.0832 16.6738L22.0832 19.244L19.5131 19.244L19.5131 16.6738Z" fill="black"/>
<path d="M27.3588 22.0847L29.9289 22.0847L29.9289 24.6548L27.3588 24.6548L27.3588 22.0847Z" fill="black"/>
<path d="M30.1995 16.6738L32.7696 16.6738V19.244L30.1995 19.244L30.1995 16.6738Z" fill="black"/>
<path d="M30.1995 22.0847L32.7696 22.0847V24.6548L30.1995 24.6548L30.1995 22.0847Z" fill="black"/>
<path d="M30.1995 24.7901L32.7696 24.7901V27.3602L30.1995 27.3602L30.1995 24.7901Z" fill="black"/>
<path d="M30.1995 30.2009L32.7696 30.2009V32.7711H30.1995L30.1995 30.2009Z" fill="black"/>
<path d="M27.3588 27.4955L29.9289 27.4955L29.9289 30.0657L27.3588 30.0657L27.3588 27.4955Z" fill="black"/>
<path d="M16.9429 27.4955L19.5131 27.4955L19.5131 30.0657L16.9429 30.0657L16.9429 27.4955Z" fill="black"/>
<path d="M16.6724 16.6738L19.2425 16.6738L19.2425 19.244L16.6724 19.244L16.6724 16.6738Z" fill="black"/>
<path d="M27.3588 16.6738L29.9289 16.6738L29.9289 19.244L27.3588 19.244L27.3588 16.6738Z" fill="black"/>
<path d="M16.6724 19.244L19.2425 19.244L19.2425 21.8141L16.6724 21.8141L16.6724 19.244Z" fill="black"/>
<path d="M22.0832 19.244L24.6534 19.244L24.6534 21.8141L22.0832 21.8141L22.0832 19.244Z" fill="black"/>
<path d="M16.6724 22.0847L19.2425 22.0847L19.2425 24.6548L16.6724 24.6548L16.6724 22.0847Z" fill="black"/>
<path d="M22.0832 22.0847L24.6534 22.0847L24.6534 24.6548L22.0832 24.6548L22.0832 22.0847Z" fill="black"/>
<path d="M19.3778 24.6548L21.9479 24.6548L21.9479 27.225H19.3778L19.3778 24.6548Z" fill="black"/>
<path d="M24.7886 24.6548L27.3588 24.6548L27.3588 27.225L24.7886 27.225L24.7886 24.6548Z" fill="black"/>
<path d="M24.7886 30.0657L27.3588 30.0657L27.3588 32.6358H24.7886L24.7886 30.0657Z" fill="black"/>
<path d="M21.9479 27.225L24.5181 27.225L24.5181 29.7951L21.9479 29.7951L21.9479 27.225Z" fill="black"/>
<path d="M19.3778 30.0657H21.9479L21.9479 32.6358H19.3778L19.3778 30.0657Z" fill="black"/>
<path d="M29.9293 16.0977L27.3592 16.0977L27.3592 13.5275L29.9293 13.5275L29.9293 16.0977Z" fill="black"/>
<path d="M22.0836 10.6868L19.5134 10.6868L19.5134 8.11666L22.0836 8.11666L22.0836 10.6868Z" fill="black"/>
<path d="M19.2429 16.0977L16.6727 16.0977L16.6727 13.5275L19.2429 13.5275L19.2429 16.0977Z" fill="black"/>
<path d="M19.2429 10.6868L16.6727 10.6868L16.6727 8.11666L19.2429 8.11666L19.2429 10.6868Z" fill="black"/>
<path d="M19.2429 7.98139L16.6727 7.98138L16.6727 5.41123L19.2429 5.41123L19.2429 7.98139Z" fill="black"/>
<path d="M19.2429 2.57054L16.6727 2.57054L16.6727 0.000385785L19.2429 0.000386009L19.2429 2.57054Z" fill="black"/>
<path d="M22.0836 5.27596L19.5134 5.27596L19.5134 2.70581L22.0836 2.70581L22.0836 5.27596Z" fill="black"/>
<path d="M32.4995 5.27596L29.9293 5.27596L29.9293 2.70581L32.4995 2.70581L32.4995 5.27596Z" fill="black"/>
<path d="M32.77 16.0977L30.1999 16.0977L30.1999 13.5275L32.77 13.5275L32.77 16.0977Z" fill="black"/>
<path d="M22.0836 16.0977L19.5134 16.0977L19.5134 13.5275L22.0836 13.5275L22.0836 16.0977Z" fill="black"/>
<path d="M32.77 13.5275L30.1999 13.5275L30.1999 10.9574L32.77 10.9574L32.77 13.5275Z" fill="black"/>
<path d="M27.3592 13.5275L24.789 13.5275L24.789 10.9574L27.3592 10.9574L27.3592 13.5275Z" fill="black"/>
<path d="M32.77 10.6868L30.1999 10.6868L30.1999 8.11666L32.77 8.11666L32.77 10.6868Z" fill="black"/>
<path d="M27.3592 10.6868L24.789 10.6868L24.789 8.11666L27.3592 8.11666L27.3592 10.6868Z" fill="black"/>
<path d="M30.0646 8.11666L27.4944 8.11666L27.4944 5.54651L30.0646 5.54651L30.0646 8.11666Z" fill="black"/>
<path d="M24.6537 8.11666L22.0836 8.11666L22.0836 5.5465L24.6537 5.54651L24.6537 8.11666Z" fill="black"/>
<path d="M24.6537 2.70581L22.0836 2.70581L22.0836 0.135658L24.6537 0.135659L24.6537 2.70581Z" fill="black"/>
<path d="M27.4944 5.54651L24.9243 5.54651L24.9243 2.97635L27.4944 2.97635L27.4944 5.54651Z" fill="black"/>
<path d="M30.0646 2.70581L27.4944 2.70581L27.4944 0.135659L30.0646 0.135659L30.0646 2.70581Z" fill="black"/>
<path d="M13.2565 16.0977L10.6863 16.0977L10.6863 13.5275L13.2565 13.5275L13.2565 16.0977Z" fill="black"/>
<path d="M5.41074 10.6868L2.84059 10.6868L2.84059 8.11666L5.41074 8.11666L5.41074 10.6868Z" fill="black"/>
<path d="M2.57005 16.0977L-0.000102997 16.0977L-0.000102772 13.5275L2.57005 13.5275L2.57005 16.0977Z" fill="black"/>
<path d="M2.57005 10.6868L-0.000102524 10.6868L-0.000102299 8.11666L2.57005 8.11666L2.57005 10.6868Z" fill="black"/>
<path d="M2.57005 7.98139L-0.000102287 7.98138L-0.000102063 5.41123L2.57005 5.41123L2.57005 7.98139Z" fill="black"/>
<path d="M2.57005 2.57054L-0.000101814 2.57054L-0.00010159 0.000385785L2.57005 0.000386009L2.57005 2.57054Z" fill="black"/>
<path d="M5.41074 5.27596L2.84059 5.27596L2.84059 2.70581L5.41074 2.70581L5.41074 5.27596Z" fill="black"/>
<path d="M15.8266 5.27596L13.2565 5.27596L13.2565 2.70581L15.8266 2.70581L15.8266 5.27596Z" fill="black"/>
<path d="M16.0972 16.0977L13.527 16.0977L13.527 13.5275L16.0972 13.5275L16.0972 16.0977Z" fill="black"/>
<path d="M5.41074 16.0977L2.84059 16.0977L2.84059 13.5275L5.41074 13.5275L5.41074 16.0977Z" fill="black"/>
<path d="M16.0972 13.5275L13.527 13.5275L13.527 10.9574L16.0972 10.9574L16.0972 13.5275Z" fill="black"/>
<path d="M10.6863 13.5275L8.11617 13.5275L8.11617 10.9574L10.6863 10.9574L10.6863 13.5275Z" fill="black"/>
<path d="M16.0972 10.6868L13.527 10.6868L13.527 8.11666L16.0972 8.11666L16.0972 10.6868Z" fill="black"/>
<path d="M10.6863 10.6868L8.11617 10.6868L8.11617 8.11666L10.6863 8.11666L10.6863 10.6868Z" fill="black"/>
<path d="M13.3917 8.11666L10.8216 8.11666L10.8216 5.54651L13.3917 5.54651L13.3917 8.11666Z" fill="black"/>
<path d="M7.9809 8.11666L5.41074 8.11666L5.41074 5.5465L7.9809 5.54651L7.9809 8.11666Z" fill="black"/>
<path d="M7.9809 2.70581L5.41074 2.70581L5.41075 0.135658L7.9809 0.135659L7.9809 2.70581Z" fill="black"/>
<path d="M10.8216 5.54651L8.25144 5.54651L8.25144 2.97635L10.8216 2.97635L10.8216 5.54651Z" fill="black"/>
<path d="M13.3917 2.70581L10.8216 2.70581L10.8216 0.135659L13.3917 0.135659L13.3917 2.70581Z" fill="black"/>
</svg>
