<svg width="5" height="36" viewBox="0 0 5 36" fill="none" xmlns="http://www.w3.org/2000/svg">
<g opacity="0.7">
<rect width="2.83349" height="2.83349" rx="0.566699" transform="matrix(1 8.74228e-08 8.74228e-08 -1 1.3999 10.1914)" fill="black"/>
<rect opacity="0.7" width="2.83349" height="3.11684" rx="0.566699" transform="matrix(1 8.74228e-08 8.74228e-08 -1 1.3999 15.0078)" fill="black"/>
<rect opacity="0.55" width="2.83349" height="2.55014" rx="0.566699" transform="matrix(1 8.74228e-08 8.74228e-08 -1 1.3999 19.2588)" fill="black"/>
<rect opacity="0.35" width="2.83349" height="3.11684" rx="0.566699" transform="matrix(1 8.74228e-08 8.74228e-08 -1 1.3999 24.0752)" fill="black"/>
<rect opacity="0.2" width="2.83349" height="2.83349" rx="0.566699" transform="matrix(1 8.74228e-08 8.74228e-08 -1 1.3999 28.6094)" fill="black"/>
<line x1="2.95906" y1="31.1592" x2="2.95906" y2="35.1261" stroke="black" stroke-width="0.283349"/>
<line x1="4.80029" y1="33.2843" x2="0.833403" y2="33.2843" stroke="black" stroke-width="0.283349"/>
<line x1="2.95906" y1="0.84082" x2="2.95906" y2="4.80771" stroke="black" stroke-width="0.283349"/>
<line x1="4.80029" y1="2.96589" x2="0.833403" y2="2.96589" stroke="black" stroke-width="0.283349"/>
</g>
</svg>
