<svg width="90" height="149" viewBox="0 0 90 149" fill="none" xmlns="http://www.w3.org/2000/svg">
<path d="M47.3604 98.5366C45.3462 97.2982 42.6788 98.3733 42.5699 98.4141C42.1888 98.5638 41.8758 98.8633 41.7125 99.2443C41.5492 99.6254 41.5356 100.047 41.6989 100.442C41.9303 101.041 42.5019 101.435 43.1551 101.435C43.3456 101.435 43.5362 101.395 43.7131 101.327C44.2575 101.122 45.2782 100.932 45.7273 101.204C46.4486 101.64 47.4285 101.408 47.8776 100.687C48.3267 99.952 48.0817 98.9857 47.3604 98.5366Z" fill="#010202"/>
<path d="M76.3618 126.422C76.8653 120.489 75.341 114.215 74.9464 112.718C75.1777 109.261 74.6198 103.218 73.9393 97.8835H74.4701V93.6646H73.3677C73.3269 93.3788 73.286 93.093 73.2452 92.8209H79.0156V85.3085H72.8506C72.8642 84.3831 72.8778 83.4304 72.8642 82.4778H78.0085V79.7968H72.8233C72.6872 74.8974 72.2926 70.3111 71.8571 68.3377C71.1767 65.3028 70.3193 59.1107 70.3193 57.2734C70.3193 55.8989 70.9997 52.1699 71.3263 50.564C72.8233 48.509 73.218 45.0522 72.1429 41.405C71.4216 38.9689 70.1696 36.8594 68.6181 35.4713C67.7063 34.6547 66.74 34.1512 65.7873 33.9334C65.624 33.7973 65.4335 33.7021 65.2158 33.634C60.2348 32.2867 54.2739 33.2938 49.8373 34.0423C48.1906 34.3145 46.4893 34.6139 45.9314 34.5322C40.8279 33.8246 39.6711 29.0613 39.1676 26.9655C39.1267 26.775 39.0859 26.6116 39.0451 26.4619C38.8273 25.6862 39.0996 25.1963 39.7936 24.0939C39.9025 23.9034 40.025 23.7265 40.1066 23.5768C42.3385 19.9975 41.6309 17.8881 40.7327 15.2207L40.7191 15.1935C42.0528 9.28702 38.5823 8.04857 36.6634 7.49059C35.0167 3.74804 32.8937 1.39365 30.3352 0.45461C26.9328 -0.783835 23.7755 0.80843 22.1696 1.66582C18.0324 1.43446 14.8478 2.49599 12.6975 4.82318C10.0981 7.66752 9.89396 11.4781 9.96201 13.2473C7.93423 15.1254 8.65551 18.691 9.02297 19.9975C8.47859 21.862 8.6419 23.6448 9.5265 25.3188C11.1324 28.3672 14.5892 29.9459 16.2631 30.3678L16.4673 30.395C18.6992 30.4767 20.4412 33.4299 21.8157 36.4103H18.8897V38.3429H22.6595C22.7412 38.5334 22.8228 38.7375 22.9045 38.9281L22.9589 39.0642C23.1086 39.4316 23.2719 39.7854 23.4216 40.1393H13.1602V47.2841H21.2169C21.0672 47.4066 20.9039 47.5291 20.727 47.6652C20.0057 48.2368 19.1619 48.8628 18.2637 49.5433C16.3584 50.9723 14.3986 52.4421 13.1058 53.6941C6.54607 61.0023 9.88042 80.2731 10.1118 81.4979C10.2751 84.873 14.1401 87.5813 18.8625 87.5813C23.6938 87.5813 27.6269 84.7505 27.6269 81.2665V81.253V81.2393L27.5861 79.266C28.1304 79.8103 28.6204 80.3275 28.7837 80.7358C29.6138 82.8588 29.4369 90.6161 28.8517 92.712C25.2044 96.9989 22.4962 104.498 21.5435 107.954C17.5968 114.324 16.8211 122.87 16.6714 126.354H14.5212C6.51891 126.354 0 132.873 0 140.875V149H89.5628V140.902C89.5628 133.322 83.7516 127.089 76.3618 126.422ZM76.144 88.1665V89.9629H66.2228V88.1665H69.6252V88.2209L70.2512 88.1665H76.144ZM64.4264 36.9819C64.5353 36.9547 64.6441 36.9411 64.753 36.9411C66.1003 36.9411 68.169 39.0914 69.1216 42.3032C70.1423 45.7735 69.3938 48.9309 68.0737 49.312C67.4613 49.4889 66.5903 49.0942 65.7601 48.264C64.753 47.2433 63.882 45.6919 63.3785 44.0043C62.3578 40.5204 63.1063 37.3766 64.4264 36.9819ZM16.0045 44.0996V43.3239H26.1162V44.0996H24.5512L24.4151 44.0452L24.3879 44.0996H16.0045ZM18.8489 84.4647C15.8413 84.4647 13.201 82.9677 13.201 81.2665C13.201 79.5654 15.8413 78.0684 18.8489 78.0684C21.843 78.0684 24.4831 79.5518 24.4967 81.253V81.2665C24.4831 82.9813 21.8566 84.4647 18.8489 84.4647ZM24.3743 109.261L24.4832 108.989C25.3542 105.695 27.9399 98.4279 31.4511 94.4676L31.6688 94.0729C32.5398 91.8818 32.8665 82.6547 31.6688 79.5926C31.247 78.5039 30.4032 77.6737 29.5186 76.8027C27.7221 75.0199 25.2725 72.5838 25.5719 66.5141C25.5991 66.0922 25.4494 65.6975 25.1772 65.3845C24.8914 65.0715 24.5103 64.8946 24.0885 64.8674C23.2719 64.8674 22.5098 65.5206 22.4689 66.3508C22.2648 70.6105 23.1494 73.414 24.3607 75.4418L24.3879 76.3808C22.8773 75.4962 20.9584 74.9519 18.8489 74.9519C16.4129 74.9519 14.2217 75.6731 12.6295 76.8299C11.9898 70.8827 11.4999 60.1722 15.3649 55.8444C16.4401 54.8101 18.3046 53.4084 20.1418 52.0338L20.3595 51.8705C20.6045 51.68 20.8359 51.5166 21.0672 51.3397V55.4089H26.6062V50.4143H22.2785C22.401 50.319 22.537 50.2102 22.6595 50.1285C23.9932 49.0806 24.9867 48.2096 25.7216 47.2841H28.9879V40.1393H26.8103C26.7014 39.8535 26.579 39.5677 26.4429 39.2955C26.3204 39.0097 26.1843 38.6967 26.0346 38.3564H27.8583V36.424H25.1908C23.4216 32.3684 20.9992 27.6051 16.7259 27.2921C15.4738 26.9246 13.2011 25.6998 12.2348 23.8762C11.7041 22.8555 11.6496 21.7531 12.0715 20.5691L12.2484 20.0656L12.0851 19.5484C11.6087 18.0786 11.4182 15.8195 12.194 15.452L13.2691 14.9485L13.0786 13.7781C12.9017 12.7302 12.8744 9.21899 14.9431 6.95985C16.4809 5.2723 18.9714 4.56458 22.3193 4.83676L22.7684 4.87763L23.2719 4.60543C24.6737 3.87053 27.0009 2.61848 29.2056 3.42143C31.0564 4.08828 32.676 6.10243 34.0097 9.39588L34.2954 10.09L35.4659 10.4302C37.4528 10.9882 38.4599 11.274 37.5344 14.8804L37.412 15.3296L37.7114 16.2278C38.5415 18.6911 38.8546 19.6029 37.3848 21.9573C37.2759 22.1342 37.167 22.3111 37.0582 22.488C36.3232 23.6856 35.3978 25.169 35.9694 27.2921C35.9966 27.401 36.0238 27.5235 36.0919 27.7548C36.6771 30.1773 38.2421 36.6145 45.4687 37.6216C46.5166 37.7577 48.1225 37.4855 50.368 37.1044C53.4165 36.5873 57.3088 35.934 60.888 36.1245C59.636 38.2068 59.3502 41.4594 60.3572 44.8617C61.6773 49.3391 64.7122 52.4693 67.7198 52.4693C67.7334 52.4693 67.7471 52.4693 67.7607 52.4693C67.4613 54.1568 67.1619 56.1574 67.1619 57.2734C67.1619 59.4509 68.1145 66.0241 68.7814 69.0182C69.1488 70.6785 69.5435 74.9519 69.6796 79.7968H65.5151V82.4778H69.7204C69.7204 83.4168 69.7204 84.3695 69.6932 85.3085H63.3377V92.8209H70.0471C70.0879 93.093 70.1287 93.3652 70.1696 93.6646H69.7476V97.8835H70.7548C71.4488 103.259 72.0476 109.519 71.7755 112.826V112.895L71.8435 113.303C71.8571 113.371 73.7896 120.257 73.218 126.354H19.7607C19.9512 123.224 20.7134 115.031 24.3743 109.261ZM86.4326 145.856H3.11658V140.862C3.11658 134.574 8.23367 129.471 14.5075 129.471H16.6306H75.0145C81.302 129.471 86.4326 134.588 86.4326 140.889V145.856Z" fill="#010202"/>
<path d="M21.9517 143.407H67.7333V132.546H21.9517V143.407ZM25.0682 135.663H64.6032V140.276H25.0682V135.663Z" fill="#010202"/>
</svg>
