<svg width="223" height="80" viewBox="0 0 223 80" fill="none" xmlns="http://www.w3.org/2000/svg">
<path d="M222.5 0.5V79.5H0.5V15.6924L14.2221 0.5H222.5Z" stroke="black"/>
<line x1="4.37114e-08" y1="45.5" x2="223" y2="45.5" stroke="black"/>
<line x1="54.5" y1="46" x2="54.5" y2="80" stroke="black"/>
<path d="M75.64 61.672L74.76 62.568C76.744 63.8 79.48 65.768 80.952 67.112L81.896 65.992C80.312 64.712 77.688 62.872 75.64 61.672ZM82.952 58.76L81.896 58.12C81.64 58.216 81.288 58.264 80.856 58.264L75.768 58.264L75.256 59.416L81.176 59.416C80.808 60.904 79.8 62.936 78.568 64.408C77.128 66.12 74.952 67.816 71.976 68.712L73.112 69.72C76.152 68.6 78.232 66.888 79.688 65.096C81.096 63.368 82.104 61.24 82.584 59.608C82.664 59.352 82.824 58.984 82.952 58.76ZM77.56 56.44L76.104 55.976C76.008 56.392 75.752 56.968 75.592 57.24C74.856 58.712 73.208 61.112 70.472 62.824L71.528 63.64C74.088 61.88 75.896 59.464 76.84 57.704C77 57.4 77.288 56.856 77.56 56.44ZM92.376 67.592C92.376 68.184 92.36 68.984 92.28 69.496L93.832 69.496C93.768 68.968 93.736 68.104 93.736 67.592C93.736 66.84 93.72 60.776 93.72 58.296C93.72 57.8 93.768 57.112 93.832 56.616L92.264 56.616C92.344 57.128 92.376 57.832 92.376 58.296C92.376 59.624 92.376 66.696 92.376 67.592ZM93.432 60.824L93.432 62.232C95.176 62.776 98.168 63.912 99.992 64.888L100.552 63.528C98.776 62.664 95.544 61.432 93.432 60.824ZM113.608 59.064L112.2 59.064C112.248 59.464 112.28 59.768 112.28 60.024C112.28 60.328 112.28 61.416 112.28 61.896L113.544 61.896C113.544 61.448 113.544 60.328 113.544 60.024C113.544 59.768 113.544 59.464 113.608 59.064ZM118.296 61.544L117.432 61.08C117.272 61.128 117.016 61.16 116.536 61.16L109.352 61.16C108.904 61.16 108.376 61.128 107.992 61.112C108.04 61.4 108.072 61.944 108.072 62.216C108.072 62.664 108.072 64.152 108.072 64.552C108.072 64.808 108.04 65.16 108.008 65.384L109.32 65.384C109.288 65.192 109.272 64.84 109.272 64.6C109.272 64.232 109.272 62.856 109.272 62.328L116.712 62.328C116.616 63.464 116.184 64.92 115.512 65.992C114.6 67.432 113.224 68.168 111.816 68.696C111.464 68.824 110.792 69 110.296 69.08L111.32 70.2C114.024 69.496 115.896 68.04 116.84 66.36C117.528 65.128 117.96 63.336 118.104 62.36C118.152 62.12 118.232 61.736 118.296 61.544ZM124.616 62.072L124.616 63.64C125.128 63.608 125.976 63.576 126.856 63.576C128.04 63.576 134.424 63.576 135.64 63.576C136.344 63.576 137.016 63.624 137.352 63.64L137.352 62.072C136.984 62.104 136.424 62.168 135.624 62.168C134.44 62.168 128.024 62.168 126.856 62.168C125.944 62.168 125.112 62.12 124.616 62.072ZM152.987 58.312L152.187 57.688C151.931 57.768 151.499 57.816 150.987 57.816C150.379 57.816 145.435 57.816 144.811 57.816C144.315 57.816 143.403 57.752 143.195 57.72L143.195 59.16C143.371 59.144 144.235 59.08 144.811 59.08C145.355 59.08 150.475 59.08 151.051 59.08C150.635 60.408 149.467 62.312 148.379 63.544C146.731 65.368 144.379 67.288 141.787 68.28L142.811 69.352C145.339 68.2 147.627 66.296 149.419 64.296C150.747 62.824 151.963 60.584 152.603 59C152.683 58.792 152.891 58.44 152.987 58.312ZM149.627 63.464L148.715 64.36C150.443 65.88 152.315 67.928 153.467 69.448L154.571 68.472C153.483 67.144 151.355 64.904 149.627 63.464ZM164.843 61.672L163.963 62.568C165.947 63.8 168.683 65.768 170.155 67.112L171.099 65.992C169.515 64.712 166.891 62.872 164.843 61.672ZM172.155 58.76L171.099 58.12C170.843 58.216 170.491 58.264 170.059 58.264L164.971 58.264L164.459 59.416L170.379 59.416C170.011 60.904 169.003 62.936 167.771 64.408C166.331 66.12 164.155 67.816 161.179 68.712L162.315 69.72C165.355 68.6 167.435 66.888 168.891 65.096C170.299 63.368 171.307 61.24 171.787 59.608C171.867 59.352 172.027 58.984 172.155 58.76ZM166.763 56.44L165.307 55.976C165.211 56.392 164.955 56.968 164.795 57.24C164.059 58.712 162.411 61.112 159.675 62.824L160.731 63.64C163.291 61.88 165.099 59.464 166.043 57.704C166.203 57.4 166.491 56.856 166.763 56.44ZM187.659 57.064L186.763 57.448C187.291 58.168 187.835 59.128 188.235 59.976L189.147 59.56C188.779 58.792 188.059 57.656 187.659 57.064ZM189.739 56.296L188.859 56.696C189.387 57.4 189.947 58.328 190.363 59.16L191.275 58.744C190.891 58.008 190.171 56.856 189.739 56.296ZM180.811 56.824L180.091 57.912C181.035 58.44 182.779 59.608 183.531 60.184L184.299 59.096C183.595 58.584 181.755 57.352 180.811 56.824ZM178.411 68.264L179.163 69.576C180.635 69.272 182.843 68.52 184.459 67.576C187.019 66.088 189.227 64.008 190.619 61.864L189.835 60.552C188.539 62.808 186.443 64.888 183.787 66.408C182.155 67.336 180.171 67.96 178.411 68.264ZM178.411 60.424L177.691 61.528C178.667 62.024 180.395 63.144 181.179 63.704L181.915 62.584C181.227 62.088 179.355 60.936 178.411 60.424ZM204.747 56.488L203.275 56.488C203.339 56.824 203.371 57.208 203.403 57.816C203.483 59.592 203.547 65.304 203.547 67.592C203.547 68.024 203.403 68.232 202.955 68.232C202.347 68.232 201.451 68.168 200.683 68.04L200.795 69.368C201.595 69.416 202.539 69.464 203.355 69.464C204.315 69.464 204.827 69.016 204.811 68.168C204.795 65.176 204.683 59.592 204.667 57.816C204.651 57.384 204.683 56.92 204.747 56.488ZM196.155 59.288L196.155 60.648C196.667 60.616 197.115 60.584 197.659 60.584C198.379 60.584 206.539 60.584 207.243 60.584C207.643 60.584 208.187 60.616 208.571 60.632L208.571 59.272C208.251 59.32 207.627 59.368 207.211 59.368C206.395 59.368 198.475 59.368 197.627 59.368C197.147 59.368 196.619 59.336 196.155 59.288ZM195.579 66.76L196.491 67.8C199.563 66.168 202.539 63.32 203.755 61.416L203.739 60.344L203.099 60.344C201.915 62.296 198.955 65.096 195.579 66.76Z" fill="black"/>
<rect x="12" y="53.7026" width="1.7027" height="17.5946" fill="black"/>
<rect x="12" y="53.7026" width="1.7027" height="17.5946" fill="black"/>
<rect x="13.7026" y="52" width="1.7027" height="3.97297" fill="black"/>
<rect x="13.7026" y="52" width="1.7027" height="3.97297" fill="black"/>
<rect x="21.0811" y="52" width="1.7027" height="5.67568" transform="rotate(90 21.0811 52)" fill="black"/>
<rect x="21.0811" y="52" width="1.7027" height="5.67568" transform="rotate(90 21.0811 52)" fill="black"/>
<rect x="36.4053" y="53.7026" width="1.7027" height="17.5946" transform="rotate(90 36.4053 53.7026)" fill="black"/>
<rect x="36.4053" y="53.7026" width="1.7027" height="17.5946" transform="rotate(90 36.4053 53.7026)" fill="black"/>
<rect x="36.4053" y="57.6758" width="1.7027" height="2.27027" transform="rotate(-180 36.4053 57.6758)" fill="black"/>
<rect x="36.4053" y="57.6758" width="1.7027" height="2.27027" transform="rotate(-180 36.4053 57.6758)" fill="black"/>
<rect x="43.7837" y="57.6758" width="1.7027" height="24.973" transform="rotate(90 43.7837 57.6758)" fill="black"/>
<rect x="43.7837" y="57.6758" width="1.7027" height="24.973" transform="rotate(90 43.7837 57.6758)" fill="black"/>
<rect x="36.4053" y="71.2974" width="1.7027" height="23.2703" transform="rotate(90 36.4053 71.2974)" fill="black"/>
<rect x="36.4053" y="71.2974" width="1.7027" height="23.2703" transform="rotate(90 36.4053 71.2974)" fill="black"/>
<rect x="43.7837" y="61.6484" width="1.7027" height="2.27027" transform="rotate(-180 43.7837 61.6484)" fill="black"/>
<rect x="43.7837" y="61.6484" width="1.7027" height="2.27027" transform="rotate(-180 43.7837 61.6484)" fill="black"/>
<rect x="20.5137" y="61.6484" width="1.7027" height="2.27027" transform="rotate(-180 20.5137 61.6484)" fill="black"/>
<rect x="20.5137" y="61.6484" width="1.7027" height="2.27027" transform="rotate(-180 20.5137 61.6484)" fill="black"/>
<rect x="18.8105" y="65.0542" width="1.7027" height="3.40541" transform="rotate(-180 18.8105 65.0542)" fill="black"/>
<rect x="18.8105" y="65.0542" width="1.7027" height="3.40541" transform="rotate(-180 18.8105 65.0542)" fill="black"/>
<rect x="17.1079" y="68.4595" width="1.7027" height="3.40541" transform="rotate(-180 17.1079 68.4595)" fill="black"/>
<rect x="17.1079" y="68.4595" width="1.7027" height="3.40541" transform="rotate(-180 17.1079 68.4595)" fill="black"/>
<rect x="15.4053" y="71.2974" width="1.7027" height="2.83784" transform="rotate(-180 15.4053 71.2974)" fill="black"/>
<rect x="15.4053" y="71.2974" width="1.7027" height="2.83784" transform="rotate(-180 15.4053 71.2974)" fill="black"/>
<rect x="42.0811" y="65.0542" width="1.7027" height="3.40541" transform="rotate(-180 42.0811 65.0542)" fill="black"/>
<rect x="42.0811" y="65.0542" width="1.7027" height="3.40541" transform="rotate(-180 42.0811 65.0542)" fill="black"/>
<rect x="40.3784" y="68.4595" width="1.7027" height="3.40541" transform="rotate(-180 40.3784 68.4595)" fill="black"/>
<rect x="40.3784" y="68.4595" width="1.7027" height="3.40541" transform="rotate(-180 40.3784 68.4595)" fill="black"/>
<rect x="38.6758" y="71.2974" width="2.27027" height="2.83784" transform="rotate(-180 38.6758 71.2974)" fill="black"/>
<rect x="38.6758" y="71.2974" width="2.27027" height="2.83784" transform="rotate(-180 38.6758 71.2974)" fill="black"/>
<path d="M46.6948 15.4375C48.1211 14.5817 53.8261 13.1554 58.6753 15.4375C56.6786 12.2997 51.2588 9.4472 46.6948 15.4375Z" stroke="black" stroke-width="0.4"/>
<path d="M58.6748 15.4365C59.7898 17.2703 61.6481 24.6053 58.6748 30.84C62.763 28.2728 66.4796 21.3045 58.6748 15.4365Z" stroke="black" stroke-width="0.4"/>
<path d="M46.6934 30.8428C45.5784 29.009 43.7201 21.674 46.6934 15.4393C42.6051 18.0065 38.8885 24.9748 46.6934 30.8428Z" stroke="black" stroke-width="0.4"/>
<path d="M58.6738 30.8418C57.2476 31.6976 51.5426 33.1238 46.6933 30.8418C48.6901 33.9796 54.1098 36.8321 58.6738 30.8418Z" stroke="black" stroke-width="0.4"/>
<path d="M76.5735 30.9707H74.5727V26.9978H77.288V30.2847H84.7193V23.9395H77.6024L76.5735 22.9392V21.9388H75.5731L74.5727 20.9099V16.0224L75.5731 15.022H76.5735V13.993L77.6024 12.9927H84.3763L85.4053 13.993V15.022H87.4346V18.9949H84.7193V15.708H77.288V21.2243H84.3763L85.4053 22.2532V23.2536H86.4056L87.4346 24.2825V29.9703L86.4056 30.9707H85.4053V31.9711L84.3763 33H77.6024L76.5735 31.9711V30.9707ZM98.0856 15.708V12.9927H110.947V15.708H105.86V33H103.145V15.708H98.0856ZM121.599 29.9703V12.9927H124.314V30.2847H131.745V12.9927H134.46V29.9703L133.431 30.9707H132.431V31.9711L131.402 33H124.628L123.599 31.9711V30.9707H122.599L121.599 29.9703ZM145.111 12.9927H154.915L155.944 13.993V15.022H156.944L157.973 16.0224V29.9703L156.944 30.9707H155.944V31.9711L154.915 33H145.111V12.9927ZM147.827 30.2847H155.258V15.708H147.827V30.2847ZM173.683 15.708H170.768V12.9927H179.343V15.708H176.399V30.2847H179.343V33H170.768V30.2847H173.683V15.708ZM192.137 29.9703V16.0224L193.138 15.022H194.138V13.993L195.167 12.9927H201.941L202.97 13.993V15.022H203.97L204.999 16.0224V29.9703L203.97 30.9707H202.97V31.9711L201.941 33H195.167L194.138 31.9711V30.9707H193.138L192.137 29.9703ZM194.853 30.2847H202.284V15.708H194.853V30.2847Z" fill="black"/>
<path fill-rule="evenodd" clip-rule="evenodd" d="M19 22.3998V32.7997H20.3121H21.6242V22.3998V12H20.3121H19V22.3998ZM24.7732 13.0487V14.0974H28.5345H32.2959V23.4485V32.7997H33.608H34.9201V23.4485V14.0974H38.6814H42.4427V13.0487V12H39.7736C38.3056 12 36.8366 12.0767 36.5091 12.1706C35.7439 12.3899 35.1426 12.9584 35.0026 13.5951C34.894 14.0896 34.8734 14.0974 33.676 14.0974C32.6717 14.0974 32.4428 14.0441 32.362 13.7916C31.8638 12.2342 31.2654 12.0087 27.6161 12.0038L24.7732 12V13.0487Z" fill="black"/>
</svg>
