<svg width="256" height="36" viewBox="0 0 256 36" fill="none" xmlns="http://www.w3.org/2000/svg">
<path d="M7.46385 6.23043V25.0456H18.5041V28H4.50941V6.23043H7.46385ZM25.6631 28V6.23043H39.6578V9.18487H28.6175V15.1871H38.165V18.1415H28.6175V25.0456H39.6578V28H25.6631ZM47.4387 9.18487V6.23043H61.4334V9.18487H55.8977V28H52.9433V9.18487H47.4387ZM74.5012 6.23043H77.9222V10.2734L77.1136 13.3211H75.0921L75.9007 10.2734H74.5012V6.23043ZM93.1669 25.7919H90.99V21.4691H93.9444V25.0456H102.03V18.1415H94.2865L93.1669 17.053V15.9645H92.0785L90.99 14.845V9.52697L92.0785 8.43849H93.1669V7.31891L94.2865 6.23043H101.657L102.777 7.31891V8.43849H104.985V12.7613H102.03V9.18487H93.9444V15.1871H101.657L102.777 16.3066V17.3951H103.865L104.985 18.5147V24.7035L103.865 25.7919H102.777V26.8804L101.657 28H94.2865L93.1669 26.8804V25.7919ZM134.541 9.18487V6.23043H148.536V9.18487H143V28H140.046V9.18487H134.541ZM156.317 28V9.52697L157.405 8.43849H158.494V7.31891L159.613 6.23043H166.984L168.104 7.31891V8.43849H169.192L170.312 9.52697V28H167.357V19.0123H159.271V28H156.317ZM159.271 16.0578H167.357V9.18487H159.271V16.0578ZM181.669 6.23043V25.0456H192.709V28H178.715V6.23043H181.669ZM199.868 28V6.23043H202.823V15.1871H206.057V13.6321L210.908 8.81168V6.23043H213.863V10.0246L207.923 15.9645H206.834V17.3951H207.923L213.863 23.3351V28H210.908V24.548L206.057 19.7276V18.1415H202.823V28H199.868Z" fill="#060606"/>
<rect x="125.35" y="2.35" width="98.3" height="30.3" stroke="black" stroke-width="0.7"/>
<rect x="123.471" y="0.35" width="3.3" height="3.3" stroke="black" stroke-width="0.7"/>
<rect x="123.471" y="31.35" width="3.3" height="3.3" stroke="black" stroke-width="0.7"/>
<rect x="171.35" y="31.35" width="3.3" height="3.3" stroke="black" stroke-width="0.7"/>
<path d="M221.35 29.85H224.65V33.15H221.35V29.85Z" stroke="black" stroke-width="0.7"/>
<rect x="171.35" y="0.35" width="3.3" height="3.3" stroke="black" stroke-width="0.7"/>
<rect x="222.35" y="1.35" width="3.3" height="3.3" stroke="black" stroke-width="0.7"/>
</svg>
