<svg width="18" height="14" viewBox="0 0 18 14" fill="none" xmlns="http://www.w3.org/2000/svg">
<path d="M1.72134 12.1042C2.19386 12.1042 2.66638 12.0907 3.13891 12.1109C3.36842 12.1177 3.48317 12.0569 3.44942 11.8139C3.40892 11.5642 3.53718 11.5034 3.75994 11.5237C3.9287 11.5372 4.09745 11.5169 4.26621 11.5304C4.48222 11.5439 4.61723 11.5237 4.61723 11.2334C4.61048 10.9566 4.46872 10.9566 4.27296 10.9634C4.15821 10.9701 4.0502 10.9566 3.93545 10.9634C3.62493 10.9971 3.37517 10.9769 3.44267 10.5449C3.46967 10.3559 3.30091 10.3694 3.18616 10.3829C2.9634 10.4031 2.83514 10.3356 2.86889 10.0858C2.90264 9.85633 2.78114 9.78208 2.57188 9.80908C2.37612 9.83608 2.26811 9.76858 2.30186 9.55257C2.33562 9.31631 2.26136 9.1813 1.99135 9.22855C1.74159 9.26905 1.72809 9.1138 1.72134 8.91804C1.71459 8.70878 1.80234 8.64127 1.9981 8.64127C2.38962 8.64802 2.78789 8.63452 3.17941 8.64802C3.42242 8.65477 3.44267 8.53327 3.44942 8.33751C3.45617 8.1215 3.36842 8.06074 3.17266 8.07424C3.03765 8.08775 2.90264 8.06749 2.76764 8.08099C2.47062 8.108 2.22086 8.10125 2.29511 7.68272C2.32212 7.51397 2.18711 7.50722 2.07235 7.52072C1.80909 7.55447 1.69433 7.45321 1.72809 7.1832C1.74834 7.00769 1.69433 6.89294 1.49182 6.92669C1.23531 6.96044 1.10706 6.87943 1.15431 6.60267C1.19481 6.36641 1.03955 6.34616 0.864043 6.35966C0.641282 6.37991 0.567028 6.28541 0.573779 6.06939C0.587279 5.67788 0.587279 5.27961 0.573779 4.88809C0.567028 4.67883 0.648032 4.61132 0.850542 4.61807C1.0328 4.62482 1.20831 4.61132 1.16781 4.87458C1.12731 5.13785 1.25556 5.2121 1.49857 5.1851C1.64033 5.1716 1.78884 5.1851 1.93735 5.1851C2.11286 5.17835 2.31537 5.2526 2.31537 4.92859C2.31537 4.64507 2.18711 4.61132 1.9711 4.63832C1.76184 4.66532 1.71459 4.55057 1.73484 4.37506C1.76184 4.14555 1.66733 4.03754 1.43107 4.06454C1.20156 4.09155 1.14081 3.97679 1.15431 3.76753C1.16781 3.63252 1.14756 3.49752 1.16106 3.36251C1.18131 3.07224 1.16106 2.84273 0.769538 2.90349C0.621031 2.93049 0.580529 2.82248 0.580529 2.69423C0.580529 2.25545 0.587279 1.81668 0.580529 1.37791C0.580529 1.1889 0.681784 1.14165 0.837042 1.1619C1.0733 1.1889 1.20831 1.11465 1.16106 0.851384C1.11381 0.594871 1.27581 0.594871 1.46482 0.588121C1.67408 0.58137 1.79559 0.628623 1.75509 0.864884C1.71459 1.1079 1.82934 1.19565 2.05885 1.1619C2.27486 1.1349 2.34237 1.24965 2.31537 1.44541C2.28161 1.68168 2.38287 1.78293 2.61913 1.74243C2.84189 1.70868 2.92965 1.80993 2.90264 2.02594C2.87564 2.24195 2.9634 2.34321 3.18616 2.31621C3.40892 2.28921 3.49667 2.39046 3.46967 2.60647C3.44267 2.81573 3.51693 2.93049 3.74644 2.89674C3.97595 2.86298 4.0907 2.95074 4.0502 3.19375C4.0097 3.44351 4.14471 3.50427 4.36747 3.48401C4.48897 3.47051 4.61723 3.49077 4.73874 3.47726C5.03575 3.45026 5.29226 3.46376 5.21126 3.88229C5.19101 3.99704 5.26526 4.04429 5.37327 4.04429C6.20356 4.04429 7.0406 4.04429 7.87089 4.04429C8.05315 4.04429 8.0599 3.92954 8.0599 3.79453C8.0599 3.40976 8.0734 3.03174 8.05315 2.64697C8.0464 2.41071 8.09365 2.26895 8.36367 2.30946C8.61343 2.34996 8.67418 2.21495 8.65393 1.99219C8.64043 1.85043 8.66068 1.70193 8.64718 1.55342C8.62018 1.27665 8.67418 1.10115 9.01845 1.14165C9.24796 1.1754 9.22771 0.98639 9.21421 0.844633C9.20071 0.642123 9.28171 0.561119 9.48422 0.57462C9.62598 0.58812 9.77449 0.567869 9.92299 0.58137C10.2133 0.608371 10.4428 0.58137 10.3753 0.189851C10.3483 0.0345929 10.4765 0.0143419 10.598 0.0143419C11.4081 0.0143419 12.2181 0.0210922 13.0281 0.0143419C13.2644 0.0143419 13.2779 0.156099 13.2644 0.324857C13.2442 0.534118 13.3319 0.608372 13.5344 0.588121C13.6762 0.57462 13.8247 0.594871 13.9732 0.58137C14.2635 0.554369 14.493 0.58137 14.4255 0.97289C14.4052 1.10115 14.493 1.1484 14.6145 1.1484C14.7967 1.1484 14.9722 1.1349 15.1545 1.15515C15.4245 1.18215 15.5933 1.1214 15.5393 0.797381C15.5123 0.642123 15.5933 0.57462 15.7553 0.58137C15.9038 0.588121 16.0455 0.58137 16.1941 0.58137C16.4776 0.594871 16.7611 0.635373 16.7071 0.17635C16.6801 -0.0464112 16.9028 0.0210922 17.0378 0.0143419C17.1594 0.00759153 17.2876 0.000841197 17.2944 0.189851C17.3011 0.432863 17.3146 0.655624 16.9636 0.594871C16.7948 0.567869 16.7071 0.648874 16.7273 0.824382C16.7543 1.07414 16.6801 1.22265 16.3966 1.1754C16.1738 1.14165 16.1401 1.2699 16.1401 1.45216C16.1401 1.64792 16.1806 1.74918 16.3966 1.72893C16.5991 1.71543 16.8016 1.73568 17.0041 1.72218C17.2201 1.70868 17.3079 1.76943 17.3011 1.99894C17.2944 2.2082 17.2809 2.35671 17.0176 2.31621C16.7678 2.2757 16.7003 2.40396 16.7273 2.62672C16.7543 2.83598 16.6531 2.91699 16.4506 2.89674C16.2211 2.86973 16.1063 2.95749 16.1468 3.19375C16.1806 3.42326 16.0725 3.50427 15.8633 3.47051C15.6068 3.43001 15.5663 3.57177 15.573 3.78778C15.5798 4.34131 15.5663 4.88809 15.5798 5.44161C15.5865 5.67788 15.5258 5.81288 15.2625 5.76563C15.0465 5.73188 14.9992 5.83988 14.9992 6.03564C15.006 6.62292 14.9925 7.20345 15.006 7.79073C15.0127 8.00674 14.9452 8.108 14.7225 8.07424C14.4997 8.04049 14.412 8.1485 14.4322 8.36451C14.439 8.47927 14.4255 8.58727 14.4322 8.70203C14.4525 9.01254 14.466 9.30281 14.0069 9.22855C13.8652 9.2083 13.8517 9.32306 13.8517 9.43106C13.8517 9.66732 13.8449 9.90359 13.8517 10.1398C13.8584 10.3154 13.7909 10.3964 13.6154 10.3694C13.3522 10.3356 13.2374 10.4369 13.2712 10.7069C13.2982 10.8959 13.2037 10.9769 13.0146 10.9566C12.7716 10.9229 12.6501 11.0039 12.6906 11.2672C12.7244 11.4697 12.6299 11.5642 12.4206 11.5372C12.1641 11.5034 12.0696 11.6182 12.1034 11.8679C12.1304 12.0569 12.0426 12.1312 11.8536 12.1177C11.7186 12.1042 11.5836 12.1244 11.4486 12.1109C11.1448 12.0839 10.8815 12.0907 10.949 12.5227C10.976 12.6847 10.8343 12.6982 10.7195 12.6915C10.4833 12.6712 10.3483 12.732 10.3888 13.002C10.4225 13.2113 10.3213 13.272 10.1188 13.2653C9.71373 13.2518 9.30871 13.272 8.90369 13.2585C8.69443 13.2518 8.60668 13.326 8.64043 13.5285C8.68768 13.7985 8.54593 13.839 8.30966 13.839C6.41957 13.8323 4.52948 13.8323 2.64613 13.839C2.40312 13.839 2.24786 13.7985 2.30186 13.5083C2.33562 13.3193 2.24786 13.245 2.05885 13.2585C1.92385 13.272 1.78884 13.2518 1.65383 13.2585C1.36357 13.272 1.0733 13.299 1.15431 12.8535C1.18131 12.7185 1.06655 12.6915 0.958548 12.6915C0.722286 12.6915 0.486024 12.678 0.249762 12.6915C0 12.7117 0 12.5767 0 12.4012C0 12.2325 0 12.0974 0.236262 12.1042C0.735787 12.1177 1.22856 12.1042 1.72134 12.1042Z" fill="black"/>
<path d="M14.1691 9.11415C13.9463 9.16815 13.7438 9.2154 13.7168 8.83063C13.5751 9.03989 13.2848 9.14115 13.6291 9.39766C13.7843 9.51242 13.7101 9.73518 13.6831 9.91068C13.6696 9.99844 13.5818 9.98494 13.5211 9.94444C13.4198 9.89043 13.3253 9.82968 13.2038 9.83643C13.1363 9.83643 13.0688 9.84318 13.0283 9.91068C12.981 9.98494 13.0283 10.0389 13.0823 10.0862C13.17 10.1537 13.2646 10.2617 13.1498 10.3292C12.9945 10.4237 13.0148 10.7342 12.765 10.6802C12.4478 10.6127 12.3938 10.768 12.4545 11.011C12.5288 11.3013 12.4815 11.47 12.1372 11.4633C12.0292 11.4633 11.9482 11.5173 11.9347 11.6455C11.901 11.9358 11.712 12.0033 11.4555 11.9898C11.3542 11.983 11.253 11.9898 11.1517 11.9898C10.9627 11.983 10.8344 12.0573 10.8547 12.2598C10.8817 12.4826 10.7669 12.5366 10.5779 12.5298C10.3079 12.5231 10.1864 12.6716 10.1999 12.9281C10.2066 13.1306 10.0986 13.2048 9.90963 13.2048C9.58562 13.1981 9.25485 13.2116 8.93083 13.2048C8.72832 13.1981 8.56632 13.2319 8.57982 13.4884C8.58657 13.6774 8.47856 13.7449 8.30305 13.7449C6.52771 13.7449 4.75238 13.7449 2.97029 13.7449C2.69352 13.7449 2.67327 13.5559 2.68002 13.3534C2.68677 13.2319 2.68677 13.1913 2.52476 13.1981C2.32225 13.2048 2.11299 13.1846 1.90373 13.1981C1.63372 13.2116 1.45821 12.9956 1.3232 12.8403C1.14095 12.6243 1.30295 12.4016 1.60672 12.3948C2.01174 12.3881 2.41676 12.3948 2.82178 12.3948C2.99729 12.3948 3.15255 12.4286 3.2808 12.5568C3.41581 12.6986 3.59132 12.6986 3.74658 12.6176C3.90858 12.5366 3.86133 12.3678 3.84783 12.2193C3.83433 12.0505 3.70607 11.8278 3.94234 11.7535C4.1651 11.6793 4.42161 11.7063 4.59037 11.9088C4.68487 12.0168 4.74563 12.0775 4.84688 11.9493C4.92113 11.8548 4.96164 11.7333 4.80638 11.6725C4.66462 11.6185 4.67137 11.5713 4.75238 11.4633C4.90088 11.2608 4.84013 10.9907 4.92113 10.7612C4.95489 10.6735 4.86038 10.5992 4.75913 10.579C4.61062 10.5385 4.45536 10.4642 4.3271 10.6262C4.1921 10.795 4.03684 10.8152 3.85458 10.6937C3.68582 10.579 3.53732 10.5047 3.76683 10.2685C3.96934 10.0592 3.86808 9.75543 3.83433 9.49216C3.82758 9.45841 3.78033 9.41791 3.73983 9.41116C3.67232 9.39091 3.63182 9.44491 3.61832 9.49891C3.59807 9.55967 3.59807 9.63392 3.57107 9.69467C3.53732 9.78918 3.51706 9.92419 3.39556 9.90394C3.26055 9.87693 3.2268 9.72168 3.2808 9.63392C3.51031 9.27615 3.36181 8.78338 3.72632 8.45936C3.87483 8.32436 3.79383 8.07459 3.77358 7.87208C3.76008 7.77758 3.67907 7.75058 3.59132 7.77083C3.44956 7.80458 3.32805 7.74383 3.1998 7.71683C2.92303 7.66957 2.72052 7.55482 2.65302 7.1498C2.52476 7.62232 2.30875 7.41306 2.05899 7.35231C2.28175 7.2443 2.2885 7.10254 2.22775 6.94054C2.1535 6.75828 2.01174 6.82578 1.88348 6.83253C1.82948 6.83928 1.76873 6.81903 1.71472 6.81903C1.2827 6.82578 1.26245 6.81903 1.3097 6.37351C1.33671 6.12375 1.23545 6.02249 1.01944 6.05624C0.783178 6.08999 0.749426 5.97524 0.756176 5.79298C0.762927 5.59047 0.749426 5.38796 0.762927 5.18545C0.762927 5.10444 0.722425 4.97619 0.857432 4.97619C0.951936 4.97619 0.999189 5.07744 1.01944 5.1652C1.03294 5.2327 1.02619 5.30021 1.03969 5.36771C1.08694 5.54997 1.1612 5.67147 1.35696 5.49597C1.59322 5.2867 1.85648 5.32721 2.09949 5.45546C2.221 5.51622 2.29525 5.54997 2.38301 5.44196C2.49776 5.3002 2.72052 5.2327 2.70027 4.99644C2.70027 4.97619 2.67327 4.93569 2.67327 4.93569C2.275 5.09769 2.39651 4.36191 1.96449 4.53067C1.86323 4.57117 1.83623 4.37541 1.84298 4.26065C1.85648 4.01764 1.79573 3.86238 1.51221 3.88263C1.37721 3.88938 1.30295 3.80838 1.30295 3.67337C1.30295 3.55862 1.26245 3.41011 1.45821 3.40336C1.63372 3.39661 1.60672 3.28185 1.59322 3.16035C1.57297 3.03884 1.64047 2.87683 1.45146 2.82958C1.41771 2.82283 1.38396 2.81608 1.35021 2.80933C0.742676 2.72158 0.742676 2.72158 0.742676 2.1208C0.742676 2.03979 0.742676 1.96554 0.742676 1.88453C0.742676 1.34451 0.742676 1.32426 1.2827 1.277C1.52571 1.25675 1.80923 1.2365 2.00499 1.34451C2.275 1.49301 2.3155 1.94529 2.73403 1.95879C2.73403 1.95879 2.73403 2.08704 2.73403 2.15455C2.73403 2.30306 2.80153 2.39756 2.95679 2.39081C3.34831 2.37731 3.34831 2.60007 3.2673 2.87683C3.2403 2.96459 3.19305 3.05909 3.27405 3.1266C3.51031 3.33586 3.73983 3.52487 3.76683 3.88263C3.77358 4.02439 4.15835 4.02439 4.26635 3.89613C4.53637 3.57212 4.53637 3.57212 5.00214 3.65987C4.87388 3.80163 4.77938 3.95014 4.79963 4.13915C4.84013 4.44291 5.09664 4.57117 5.32615 4.38216C5.48816 4.24715 5.65692 4.2134 5.85268 4.22015C6.3117 4.2269 6.77748 4.22015 7.2365 4.22015C7.35126 4.22015 7.49301 4.1864 7.53351 4.36191C7.58752 4.56442 7.74953 4.57117 7.91153 4.54417C8.10054 4.51042 8.1613 4.36866 8.1613 4.19315C8.1613 3.72063 8.16805 3.2481 8.1613 2.77558C8.15455 2.53932 8.2018 2.37731 8.48531 2.39081C8.64057 2.39756 8.70132 2.28955 8.70132 2.1478C8.70132 2.11405 8.70132 2.08029 8.70132 2.04654C8.71482 1.83728 8.63382 1.60102 8.74858 1.41876C8.87008 1.21625 9.12659 1.35126 9.3156 1.30401C9.50461 1.25675 9.63287 1.196 9.68012 0.973239C9.72062 0.79773 9.79488 0.60197 10.0716 0.770729C10.1661 0.831482 10.3349 0.784229 10.4699 0.777479C10.5712 0.777479 10.6927 0.79098 10.7399 0.676224C10.7872 0.554718 10.6792 0.500715 10.6117 0.426461C10.5307 0.345457 10.4092 0.271204 10.5307 0.149698C10.6319 0.0484425 10.7399 0.115946 10.8142 0.217201C10.9154 0.352208 11.0572 0.365708 11.2057 0.365708C11.577 0.365708 11.9482 0.365708 12.3195 0.365708C12.5963 0.365708 12.8798 0.325206 13.0688 0.622221C13.1565 0.757228 13.3321 0.689725 13.4806 0.662723C13.9193 0.588469 13.9531 0.622221 13.9936 1.04749C14.0138 1.277 14.1961 1.29725 14.3649 1.31076C14.7159 1.32426 15.0601 1.30401 15.4112 1.33776C15.6002 1.35126 15.7959 1.51327 15.9444 1.223C16.0322 1.43901 15.9849 1.54702 15.8094 1.60777C15.7419 1.62802 15.6812 1.67527 15.7082 1.75628C15.7284 1.81703 15.7824 1.83053 15.8432 1.82378C15.9377 1.81028 16.0254 1.83053 16.0929 1.90479C16.1942 2.01954 16.2685 2.02629 16.4035 1.93179C16.5857 1.80353 16.8152 1.87103 17.0312 1.87103C17.119 1.87103 17.1932 1.91154 17.1797 2.01279C17.1662 2.1073 17.0785 2.1343 16.9975 2.1208C16.9232 2.11405 16.849 2.08704 16.7747 2.06004C16.5722 1.99254 16.5115 2.08704 16.5115 2.27605C16.5182 2.74858 16.5182 2.74858 16.0592 2.80258C15.8432 2.82958 15.7284 2.91059 15.9039 3.1266C16.0254 3.28185 15.9242 3.31561 15.7892 3.33586C15.7014 3.34936 15.5867 3.33586 15.5327 3.38311C15.3504 3.53837 14.9454 3.53837 15.2762 4.00414C15.5057 4.32816 15.4179 4.83443 15.3707 5.2597C15.3504 5.44871 15.2289 5.54322 15.0196 5.54322C14.6146 5.54997 14.5674 5.65122 14.5471 6.03599C14.5201 6.50852 14.5201 6.98104 14.5066 7.44681C14.4999 7.56157 14.4459 7.64257 14.3244 7.64932C14.0408 7.67632 14.0543 7.78433 14.1826 8.00034C14.3446 8.2771 14.2433 8.57412 13.9666 8.77663C13.8653 8.85088 13.8586 8.91163 13.9733 8.97914C14.0341 9.02639 14.1353 8.98589 14.1691 9.11415Z" fill="black"/>
<path d="M14.9048 7.84596C14.736 7.56919 14.7968 7.27893 14.7833 7.00216C14.7698 6.73215 14.8035 6.46214 14.7428 6.19887C14.7293 6.13137 14.7428 6.05712 14.8305 6.04362C14.8778 6.03687 14.9115 6.08412 14.9115 6.13137C14.9048 6.70515 14.9048 7.27893 14.9048 7.84596Z" fill="black"/>
</svg>
