<svg width="33" height="23" viewBox="0 0 33 23" fill="none" xmlns="http://www.w3.org/2000/svg">
<rect x="1" y="2.70312" width="1.7027" height="17.5946" fill="black"/>
<rect x="1" y="2.70312" width="1.7027" height="17.5946" fill="black"/>
<rect x="2.70264" y="1" width="1.7027" height="3.97297" fill="black"/>
<rect x="2.70264" y="1" width="1.7027" height="3.97297" fill="black"/>
<rect x="10.0811" y="1" width="1.7027" height="5.67568" transform="rotate(90 10.0811 1)" fill="black"/>
<rect x="10.0811" y="1" width="1.7027" height="5.67568" transform="rotate(90 10.0811 1)" fill="black"/>
<rect x="25.4053" y="2.70312" width="1.7027" height="17.5946" transform="rotate(90 25.4053 2.70312)" fill="black"/>
<rect x="25.4053" y="2.70312" width="1.7027" height="17.5946" transform="rotate(90 25.4053 2.70312)" fill="black"/>
<rect x="25.4053" y="6.67578" width="1.7027" height="2.27027" transform="rotate(-180 25.4053 6.67578)" fill="black"/>
<rect x="25.4053" y="6.67578" width="1.7027" height="2.27027" transform="rotate(-180 25.4053 6.67578)" fill="black"/>
<rect x="32.7837" y="6.67578" width="1.7027" height="24.973" transform="rotate(90 32.7837 6.67578)" fill="black"/>
<rect x="32.7837" y="6.67578" width="1.7027" height="24.973" transform="rotate(90 32.7837 6.67578)" fill="black"/>
<rect x="25.4053" y="20.2969" width="1.7027" height="23.2703" transform="rotate(90 25.4053 20.2969)" fill="black"/>
<rect x="25.4053" y="20.2969" width="1.7027" height="23.2703" transform="rotate(90 25.4053 20.2969)" fill="black"/>
<rect x="32.7837" y="10.6484" width="1.7027" height="2.27027" transform="rotate(-180 32.7837 10.6484)" fill="black"/>
<rect x="32.7837" y="10.6484" width="1.7027" height="2.27027" transform="rotate(-180 32.7837 10.6484)" fill="black"/>
<rect x="9.51367" y="10.6484" width="1.7027" height="2.27027" transform="rotate(-180 9.51367 10.6484)" fill="black"/>
<rect x="9.51367" y="10.6484" width="1.7027" height="2.27027" transform="rotate(-180 9.51367 10.6484)" fill="black"/>
<rect x="7.81055" y="14.0537" width="1.7027" height="3.40541" transform="rotate(-180 7.81055 14.0537)" fill="black"/>
<rect x="7.81055" y="14.0537" width="1.7027" height="3.40541" transform="rotate(-180 7.81055 14.0537)" fill="black"/>
<rect x="6.10791" y="17.459" width="1.7027" height="3.40541" transform="rotate(-180 6.10791 17.459)" fill="black"/>
<rect x="6.10791" y="17.459" width="1.7027" height="3.40541" transform="rotate(-180 6.10791 17.459)" fill="black"/>
<rect x="4.40527" y="20.2969" width="1.7027" height="2.83784" transform="rotate(-180 4.40527 20.2969)" fill="black"/>
<rect x="4.40527" y="20.2969" width="1.7027" height="2.83784" transform="rotate(-180 4.40527 20.2969)" fill="black"/>
<rect x="31.0811" y="14.0537" width="1.7027" height="3.40541" transform="rotate(-180 31.0811 14.0537)" fill="black"/>
<rect x="31.0811" y="14.0537" width="1.7027" height="3.40541" transform="rotate(-180 31.0811 14.0537)" fill="black"/>
<rect x="29.3784" y="17.459" width="1.7027" height="3.40541" transform="rotate(-180 29.3784 17.459)" fill="black"/>
<rect x="29.3784" y="17.459" width="1.7027" height="3.40541" transform="rotate(-180 29.3784 17.459)" fill="black"/>
<rect x="27.6758" y="20.2969" width="2.27027" height="2.83784" transform="rotate(-180 27.6758 20.2969)" fill="black"/>
<rect x="27.6758" y="20.2969" width="2.27027" height="2.83784" transform="rotate(-180 27.6758 20.2969)" fill="black"/>
<path d="M1.47266 3.49844V18.9712V19.9695H2.4709V21.966H24.9314V19.9695H26.9279V16.9747H27.9262V13.98H29.9226V9.98703H31.9191V7.49142H24.4323V3.49844H8.95949V1.50195H2.97002V3.49844H1.47266Z" fill="white" fill-opacity="0.2" stroke="black" stroke-width="1.94138"/>
<path d="M10.793 14.8857L10.9131 15H11.1357L11.2969 14.8389V14.6104L11.1826 14.4961L11.2969 14.3818V14.1533L11.1357 13.9922H10.9131L10.793 14.1064L10.6787 13.9922H10.4531L10.2949 14.1533V14.3818L10.4092 14.4961L10.2949 14.6104V14.8389L10.4531 15H10.6787L10.793 14.8857ZM10.793 14.4287L10.8662 14.4961L10.793 14.5605L10.7285 14.4961L10.793 14.4287ZM14.5781 15.293L14.5107 15.3604H13.8281L13.7549 15.293V15.0674L13.5938 14.9033H13.3652L13.21 15.0674V15.293L13.3652 15.457H13.5938L13.667 15.5215V15.75L13.8281 15.9111H14.5107L14.6689 15.75V15.5215L14.7393 15.457H14.9678L15.123 15.293V12.3311L15.0088 12.2168L15.082 12.1436L15.1963 12.2578H15.4248L15.5801 12.1025V11.874L15.4248 11.7129H14.2822L14.1211 11.874V12.1025L14.2822 12.2578H14.5107L14.625 12.1436L14.6924 12.2168L14.5781 12.3311V15.293ZM14.5547 10.793V11.0713L14.71 11.2324H14.9912L15.1523 11.0713V10.793L14.9912 10.6318H14.71L14.5547 10.793ZM18.7207 14.8389V14.6104L18.7939 14.543H19.0225L19.1777 14.3818V12.3311L19.0225 12.167H18.7939L18.7207 12.1025V11.874L18.5596 11.7129H16.9629L16.8076 11.874V15.75L16.9629 15.9111H17.1914L17.3525 15.75V15.0674L17.2383 14.9531L17.3057 14.8857L17.4199 15H18.5596L18.7207 14.8389ZM17.3057 12.1494L17.4199 12.2637H18.5596L18.6299 12.3311V14.3818L18.5596 14.4492H17.4199L17.3057 14.5605L17.2383 14.4961L17.3525 14.3818V12.3311L17.2383 12.2168L17.3057 12.1494ZM22.2275 15.0674V15.293L22.1631 15.3604H21.0234L20.8623 15.5215V15.75L21.0234 15.9111H22.1631L22.3184 15.75V15.5215L22.3916 15.457H22.6201L22.7754 15.293V11.8682L22.6201 11.7129H21.0234L20.8623 11.8682V12.0967L20.7891 12.167H20.5605L20.4053 12.3311V14.3818L20.5605 14.5371H20.7891L20.8623 14.6104V14.8389L21.0234 15H22.1631L22.2773 14.8799L22.3418 14.9531L22.2275 15.0674ZM22.1631 12.2578L22.2773 12.1436L22.3418 12.2109L22.2275 12.3311V14.3818L22.3418 14.4961L22.2773 14.5605L22.1631 14.4492H21.0234L20.9502 14.3818V12.3311L21.0234 12.2578H22.1631Z" fill="#404040"/>
</svg>
