<svg width="22" height="23" viewBox="0 0 22 23" fill="none" xmlns="http://www.w3.org/2000/svg">
<path fill-rule="evenodd" clip-rule="evenodd" d="M13.7383 11.5239C13.7383 10.0694 12.5181 8.89021 11.013 8.89021C9.50791 8.89021 8.28777 10.0694 8.28777 11.5239C8.28777 12.9785 9.50791 14.1576 11.013 14.1576C12.5181 14.1576 13.7383 12.9785 13.7383 11.5239ZM15.0716 11.5239C15.0716 9.35771 13.2545 7.60166 11.013 7.60166C8.77153 7.60166 6.95444 9.35771 6.95444 11.5239C6.95444 13.6901 8.77153 15.4462 11.013 15.4462C13.2545 15.4462 15.0716 13.6901 15.0716 11.5239Z" fill="black"/>
<path fill-rule="evenodd" clip-rule="evenodd" d="M13.793 3.92225C13.793 2.46769 12.5728 1.28855 11.0677 1.28855C9.56259 1.28855 8.34246 2.46769 8.34246 3.92225C8.34246 5.3768 9.56259 6.55595 11.0677 6.55595C12.5728 6.55595 13.793 5.3768 13.793 3.92225ZM15.1263 3.92225C15.1263 1.75605 13.3092 0 11.0677 0C8.82621 0 7.00912 1.75605 7.00912 3.92225C7.00912 6.08845 8.82621 7.8445 11.0677 7.8445C13.3092 7.8445 15.1263 6.08845 15.1263 3.92225Z" fill="black"/>
<path fill-rule="evenodd" clip-rule="evenodd" d="M13.7246 19.0778C13.7246 17.6232 12.5045 16.444 10.9993 16.444C9.49423 16.444 8.2741 17.6232 8.2741 19.0778C8.2741 20.5323 9.49423 21.7115 10.9993 21.7115C12.5045 21.7115 13.7246 20.5323 13.7246 19.0778ZM15.0579 19.0778C15.0579 16.9116 13.2408 15.1555 10.9993 15.1555C8.75785 15.1555 6.94076 16.9116 6.94076 19.0778C6.94076 21.2439 8.75785 23 10.9993 23C13.2408 23 15.0579 21.2439 15.0579 19.0778Z" fill="black"/>
<path fill-rule="evenodd" clip-rule="evenodd" d="M20.6667 7.77908C20.6667 6.32452 19.4465 5.14537 17.9414 5.14537C16.4363 5.14537 15.2162 6.32452 15.2162 7.77908C15.2162 9.23363 16.4363 10.4128 17.9414 10.4128C19.4465 10.4128 20.6667 9.23363 20.6667 7.77908ZM22 7.77908C22 5.61288 20.1829 3.85683 17.9414 3.85683C15.6999 3.85683 13.8828 5.61288 13.8828 7.77908C13.8828 9.94527 15.6999 11.7013 17.9414 11.7013C20.1829 11.7013 22 9.94527 22 7.77908Z" fill="black"/>
<path fill-rule="evenodd" clip-rule="evenodd" d="M6.78384 15.265C6.78384 13.8104 5.5637 12.6313 4.05859 12.6313C2.55347 12.6313 1.33333 13.8104 1.33333 15.265C1.33333 16.7195 2.55347 17.8987 4.05859 17.8987C5.5637 17.8987 6.78384 16.7195 6.78384 15.265ZM8.11717 15.265C8.11717 13.0988 6.30008 11.3427 4.05859 11.3427C1.81709 11.3427 0 13.0988 0 15.265C0 17.4312 1.81709 19.1872 4.05859 19.1872C6.30008 19.1872 8.11717 17.4312 8.11717 15.265Z" fill="black"/>
<path fill-rule="evenodd" clip-rule="evenodd" d="M20.6667 15.4059C20.6667 13.9513 19.4465 12.7722 17.9414 12.7722C16.4363 12.7722 15.2162 13.9513 15.2162 15.4059C15.2162 16.8605 16.4363 18.0396 17.9414 18.0396C19.4465 18.0396 20.6667 16.8605 20.6667 15.4059ZM22 15.4059C22 13.2397 20.1829 11.4837 17.9414 11.4837C15.6999 11.4837 13.8828 13.2397 13.8828 15.4059C13.8828 17.5721 15.6999 19.3282 17.9414 19.3282C20.1829 19.3282 22 17.5721 22 15.4059Z" fill="black"/>
<path fill-rule="evenodd" clip-rule="evenodd" d="M7.00259 7.63814C7.00259 6.18359 5.78245 5.00444 4.27734 5.00444C2.77222 5.00444 1.55209 6.18359 1.55209 7.63814C1.55209 9.0927 2.77222 10.2718 4.27734 10.2718C5.78245 10.2718 7.00259 9.0927 7.00259 7.63814ZM8.33592 7.63814C8.33592 5.47194 6.51883 3.71589 4.27734 3.71589C2.03584 3.71589 0.21875 5.47194 0.21875 7.63814C0.21875 9.80434 2.03584 11.5604 4.27734 11.5604C6.51883 11.5604 8.33592 9.80434 8.33592 7.63814Z" fill="black"/>
</svg>
