<svg width="34" height="25" viewBox="0 0 34 25" fill="none" xmlns="http://www.w3.org/2000/svg">
<rect y="1.70312" width="1.7027" height="17.5946" fill="black"/>
<rect y="1.70312" width="1.7027" height="17.5946" fill="white"/>
<rect x="1.70312" width="1.7027" height="3.97297" fill="black"/>
<rect x="1.70312" width="1.7027" height="3.97297" fill="white"/>
<rect x="9.08105" width="1.7027" height="5.67568" transform="rotate(90 9.08105 0)" fill="black"/>
<rect x="9.08105" width="1.7027" height="5.67568" transform="rotate(90 9.08105 0)" fill="white"/>
<rect x="24.4053" y="1.70312" width="1.7027" height="17.5946" transform="rotate(90 24.4053 1.70312)" fill="black"/>
<rect x="24.4053" y="1.70312" width="1.7027" height="17.5946" transform="rotate(90 24.4053 1.70312)" fill="white"/>
<rect x="24.4053" y="5.67578" width="1.7027" height="2.27027" transform="rotate(-180 24.4053 5.67578)" fill="black"/>
<rect x="24.4053" y="5.67578" width="1.7027" height="2.27027" transform="rotate(-180 24.4053 5.67578)" fill="white"/>
<rect x="31.7842" y="5.67578" width="1.7027" height="24.973" transform="rotate(90 31.7842 5.67578)" fill="black"/>
<rect x="31.7842" y="5.67578" width="1.7027" height="24.973" transform="rotate(90 31.7842 5.67578)" fill="white"/>
<rect x="24.4053" y="19.2969" width="1.7027" height="23.2703" transform="rotate(90 24.4053 19.2969)" fill="black"/>
<rect x="24.4053" y="19.2969" width="1.7027" height="23.2703" transform="rotate(90 24.4053 19.2969)" fill="white"/>
<rect x="31.7842" y="9.64844" width="1.7027" height="2.27027" transform="rotate(-180 31.7842 9.64844)" fill="black"/>
<rect x="31.7842" y="9.64844" width="1.7027" height="2.27027" transform="rotate(-180 31.7842 9.64844)" fill="white"/>
<rect x="8.51367" y="9.64844" width="1.7027" height="2.27027" transform="rotate(-180 8.51367 9.64844)" fill="black"/>
<rect x="8.51367" y="9.64844" width="1.7027" height="2.27027" transform="rotate(-180 8.51367 9.64844)" fill="white"/>
<rect x="6.81055" y="13.0537" width="1.7027" height="3.40541" transform="rotate(-180 6.81055 13.0537)" fill="black"/>
<rect x="6.81055" y="13.0537" width="1.7027" height="3.40541" transform="rotate(-180 6.81055 13.0537)" fill="white"/>
<rect x="5.1084" y="16.459" width="1.7027" height="3.40541" transform="rotate(-180 5.1084 16.459)" fill="black"/>
<rect x="5.1084" y="16.459" width="1.7027" height="3.40541" transform="rotate(-180 5.1084 16.459)" fill="white"/>
<rect x="3.40527" y="19.2969" width="1.7027" height="2.83784" transform="rotate(-180 3.40527 19.2969)" fill="black"/>
<rect x="3.40527" y="19.2969" width="1.7027" height="2.83784" transform="rotate(-180 3.40527 19.2969)" fill="white"/>
<rect x="30.0811" y="13.0537" width="1.7027" height="3.40541" transform="rotate(-180 30.0811 13.0537)" fill="black"/>
<rect x="30.0811" y="13.0537" width="1.7027" height="3.40541" transform="rotate(-180 30.0811 13.0537)" fill="white"/>
<rect x="28.3779" y="16.459" width="1.7027" height="3.40541" transform="rotate(-180 28.3779 16.459)" fill="black"/>
<rect x="28.3779" y="16.459" width="1.7027" height="3.40541" transform="rotate(-180 28.3779 16.459)" fill="white"/>
<rect x="26.6758" y="19.2969" width="2.27027" height="2.83784" transform="rotate(-180 26.6758 19.2969)" fill="black"/>
<rect x="26.6758" y="19.2969" width="2.27027" height="2.83784" transform="rotate(-180 26.6758 19.2969)" fill="white"/>
<rect x="10.5" y="10.5" width="23" height="14" fill="white" stroke="#898989"/>
</svg>
